<?xml version="1.0" encoding="UTF-8"?>
<svg version="1.1" xmlns="http://www.w3.org/2000/svg" width="1024" height="1024">
<path d="M0 0 C337.92 0 675.84 0 1024 0 C1024 337.92 1024 675.84 1024 1024 C686.08 1024 348.16 1024 0 1024 C0 686.08 0 348.16 0 0 Z " fill="#0C1318" transform="translate(0,0)"/>
<path d="M0 0 C0.33 0 0.66 0 1 0 C1.0501123 1.23451904 1.10022461 2.46903809 1.15185547 3.7409668 C1.34211712 8.38012765 1.54201574 13.01883426 1.74462891 17.6574707 C1.83053685 19.65410638 1.91393134 21.65085203 1.99462891 23.64770508 C2.43696762 34.5505352 2.91386946 45.26523109 5 56 C5.19468872 57.08039551 5.19468872 57.08039551 5.39331055 58.18261719 C6.12744964 61.47491248 6.99695587 62.99703393 9.4375 65.375 C14.7349712 68.73437198 19.91091851 68.72748883 26 68 C38.12683803 64.62605647 48.50635345 57.73109021 59 51 C60.8925835 49.78776604 62.78614878 48.57763049 64.68701172 47.37841797 C66.26353539 46.38288682 67.83134365 45.37359111 69.3984375 44.36328125 C72 43 72 43 76 43 C75.08815546 47.3096838 72.9193471 50.58850916 70.5625 54.25 C70.11946533 54.94947754 69.67643066 55.64895508 69.2199707 56.36962891 C67.81810615 58.58283896 66.40966493 60.79175163 65 63 C53.32346362 79.91623459 53.32346362 79.91623459 48.8125 99.375 C48.79832031 100.68210937 48.78414062 101.98921875 48.76953125 103.3359375 C48.98750891 106.80141287 49.27528328 109.00758929 51 112 C53.83191784 113.75185531 55.9679706 114.24912923 59.2734375 114.23046875 C60.09078369 114.22917969 60.90812988 114.22789062 61.75024414 114.2265625 C62.61641357 114.21367187 63.48258301 114.20078125 64.375 114.1875 C65.27404053 114.18105469 66.17308105 114.17460937 67.09936523 114.16796875 C73.20198257 114.09818093 79.2430075 113.73974128 85.32421875 113.22265625 C92.87174542 112.76547344 100.44192203 112.92748113 108 113 C106.50114321 116.81912097 104.38056994 118.47509348 101.0625 120.8125 C100.07121094 121.51375 99.07992187 122.215 98.05859375 122.9375 C95.28667207 124.80668856 92.47747928 126.57001633 89.625 128.3125 C82.8545208 132.52567808 76.97308378 137.74862428 71 143 C78.91665168 142.22470223 86.72096302 140.94953766 94.5625 139.625 C95.90315256 139.40011674 97.24381014 139.17526337 98.58447266 138.95043945 C107.74422751 137.4085432 116.88547829 135.79087248 126 134 C125.34 136.97 124.68 139.94 124 143 C115.83907805 145.18564315 107.72636011 146.79935645 99.375 148.05078125 C97.01672853 148.42257085 94.65866081 148.7956548 92.30078125 149.16992188 C88.63108102 149.74814028 84.96087443 150.31834183 81.28662109 150.86694336 C77.7077558 151.40455643 74.13535598 151.9747565 70.5625 152.55078125 C69.46147949 152.70726639 68.36045898 152.86375153 67.22607422 153.02497864 C61.91854139 153.76514252 61.91854139 153.76514252 57.4190979 156.39700317 C54.00179364 161.32116663 54.00508866 166.2890522 55 172 C58.29854112 180.34651093 65.15629647 187.47057928 70.73291016 194.41699219 C78 203.49595376 78 203.49595376 78 206 C72.64420464 205.6306348 67.88945163 204.75141428 62.75 203.1875 C56.57573133 201.34935895 50.38760764 199.96886653 44.0625 198.75 C43.1746582 198.5749292 42.28681641 198.3998584 41.37207031 198.21948242 C33.06355516 196.31740739 33.06355516 196.31740739 25.0859375 198.0390625 C23.41889007 201.04934238 23.55899776 204.02538642 23.625 207.375 C23.63080078 208.08382324 23.63660156 208.79264648 23.64257812 209.52294922 C23.78166191 215.27303339 24.7883414 220.5880689 26.34375 226.1328125 C27.0403757 229.17640338 27.11079931 231.88838615 27 235 C22.21097182 231.19054576 18.10093212 227.02008464 14 222.5 C7.94259725 215.77015758 7.94259725 215.77015758 1 210 C-2.58599823 210.30252248 -4.82188192 212.18048673 -7.625 214.3125 C-21.56669582 224.25053098 -38.60955062 226.71954813 -55.25 223.9375 C-63.44623296 222.20222355 -70.59228634 218.83519927 -78 215 C-88.28194413 222.6846263 -98.46639449 230.78365482 -101 244 C-101.50469567 252.96498884 -98.13723421 259.61507736 -92.625 266.4375 C-78.29139876 281.86343888 -57.7265702 286.47131957 -38 291 C-37.14873535 291.20012695 -36.2974707 291.40025391 -35.42041016 291.60644531 C-10.53048876 297.38726496 14.91171988 298.5591695 40.375 298.4375 C41.67907806 298.43545563 42.98315613 298.43341125 44.32675171 298.43130493 C68.59319438 298.38287901 92.6286504 296.92609504 116.74645996 294.24993896 C118.80597876 294.0215188 120.8663314 293.80064926 122.92675781 293.58056641 C129.6403086 292.85495658 136.32173005 291.99768384 143 291 C144.3312793 290.80784912 144.3312793 290.80784912 145.68945312 290.61181641 C176.61713047 286.08194988 206.97928704 278.59093264 237 270 C238.30418538 269.62739296 239.60838447 269.2548339 240.91259766 268.88232422 C241.93144043 268.59115723 242.9502832 268.29999023 244 268 C242.75347656 267.96261719 241.50695312 267.92523437 240.22265625 267.88671875 C209.31567232 266.77766031 182.48806097 258.48806097 160 236 C138.88763643 212.60521875 129.33606631 184.62224102 130.83154297 153.34863281 C132.55310806 129.34652245 142.65117601 107.37690328 159 90 C159.81339844 89.10667969 160.62679688 88.21335937 161.46484375 87.29296875 C179.47252174 68.29297138 205.98184592 56.89200587 232.046875 55.71484375 C263.3120393 54.9002857 291.08623807 64.92924233 314.0625 86.5625 C333.99364712 107.29345239 343.48929009 134.01886233 344.3125 162.4375 C343.66042835 193.27665348 330.23426717 219.35334171 308.54296875 240.66015625 C306.1102882 242.8985213 303.5904919 244.9487324 301 247 C340.61297731 227.93468654 340.61297731 227.93468654 368.375 195.125 C369.79518291 188.02408546 370.04989838 181.30140989 366.328125 174.90625 C362.85259789 169.91784639 359.39868791 165.69045595 354.0625 162.6875 C352.3125 161.5625 352.3125 161.5625 351 160 C350.40584671 156.26532221 350.5864902 152.74784275 351 149 C374.80758159 166.28582387 374.80758159 166.28582387 378 180 C379.47219781 193.20424838 376.17683753 201.92618305 368.12084961 212.17504883 C340.0976596 246.3571817 288.98560713 263.87359532 247.80664062 276.15820312 C244.76585158 277.07022823 241.73475787 278.01113368 238.703125 278.953125 C214.82433017 286.29327876 190.49132087 291.87003193 165.93896484 296.45019531 C164.05228688 296.8031442 162.16702691 297.16380956 160.28369141 297.53417969 C142.55401489 300.98999157 124.63581775 302.25250855 106.6484375 303.60571289 C105.62711731 303.68289551 104.60579712 303.76007813 103.55352783 303.83959961 C101.51841949 303.99336462 99.48322192 304.14595323 97.44793701 304.29736328 C91.8702632 304.72628278 86.36770023 305.32428296 80.828125 306.09765625 C69.51090155 307.58188371 58.06820426 307.33484104 46.67578125 307.31567383 C42.79918572 307.31253976 38.92337535 307.33595449 35.046875 307.36132812 C-7.6510453 307.47008415 -65.39963893 304.32971801 -98.3125 273.0625 C-105.30176795 265.70685913 -109.7363582 257.55070114 -110.09765625 247.203125 C-109.40581679 235.25623875 -104.32550658 226.4383523 -96 218 C-92.46472145 215.11619675 -88.82010482 212.49199361 -85 210 C-86.2684375 208.6078125 -86.2684375 208.6078125 -87.5625 207.1875 C-98.42612995 194.47474154 -105.3072637 179.93995874 -104 163 C-101.6115781 145.86307288 -92.5248558 131.55598501 -79 121 C-79.56660494 117.71553756 -80.3880202 116.28123984 -82.96484375 114.1875 C-83.90553711 113.41829224 -83.90553711 113.41829224 -84.86523438 112.63354492 C-85.54908203 112.0944751 -86.23292969 111.55540527 -86.9375 111 C-87.9884082 110.15755737 -87.9884082 110.15755737 -89.06054688 109.2980957 C-97.02333947 103.0216963 -105.46665669 97.46294866 -114 92 C-110.30172479 90.7672416 -107.20396004 91.1841984 -103.40234375 91.55859375 C-102.65344376 91.62659683 -101.90454376 91.69459991 -101.13294983 91.7646637 C-98.73387523 91.98300499 -96.33567492 92.20950365 -93.9375 92.4375 C-79.96352862 94.28199616 -79.96352862 94.28199616 -66 94 C-63.55584986 92.00045733 -63.55584986 92.00045733 -63.77929688 88.01611328 C-63.89855134 82.84028876 -64.65864279 77.83727463 -65.53125 72.7421875 C-65.68662231 71.79489777 -65.84199463 70.84760803 -66.0020752 69.87161255 C-66.49461545 66.87157499 -66.99635779 63.87319224 -67.5 60.875 C-68.00307286 57.86958583 -68.50391886 54.86388265 -68.9979248 51.85696411 C-69.30410511 49.99398359 -69.61543283 48.13183923 -69.93273926 46.27072144 C-70.72808823 41.43924507 -71.16296634 36.89647337 -71 32 C-67.46183947 33.51031326 -65.16633853 35.57593356 -62.453125 38.28125 C-61.18662109 39.54388672 -61.18662109 39.54388672 -59.89453125 40.83203125 C-59.02183594 41.71246094 -58.14914062 42.59289062 -57.25 43.5 C-56.36183594 44.38042969 -55.47367187 45.26085937 -54.55859375 46.16796875 C-53.71941406 47.00972656 -52.88023437 47.85148437 -52.015625 48.71875 C-51.24508789 49.49154297 -50.47455078 50.26433594 -49.68066406 51.06054688 C-48 53 -48 53 -48 55 C-47.46375 55.226875 -46.9275 55.45375 -46.375 55.6875 C-44 57 -44 57 -41.1875 59.625 C-38.17237982 62.25582374 -38.17237982 62.25582374 -34.4375 62.5625 C-30.22072963 61.87248303 -28.87180218 61.17409715 -26 58 C-22.12128128 51.15226416 -19.16373619 43.83345274 -16.1875 36.5625 C-15.31529512 34.45304603 -14.44289661 32.34367212 -13.5703125 30.234375 C-12.71352242 28.15625794 -11.85675102 26.07813317 -11 24 C-9.52721168 20.43481152 -8.04754535 16.87259807 -6.5625 13.3125 C-6.24498779 12.54172119 -5.92747559 11.77094238 -5.6003418 10.97680664 C-3.9925777 7.12775981 -2.34875515 3.47177511 0 0 Z " fill="#CE9B24" transform="translate(372,337)"/>
<path d="M0 0 C0.33 0 0.66 0 1 0 C1.0501123 1.23451904 1.10022461 2.46903809 1.15185547 3.7409668 C1.34211712 8.38012765 1.54201574 13.01883426 1.74462891 17.6574707 C1.83053685 19.65410638 1.91393134 21.65085203 1.99462891 23.64770508 C2.43696762 34.5505352 2.91386946 45.26523109 5 56 C5.19468872 57.08039551 5.19468872 57.08039551 5.39331055 58.18261719 C6.12744964 61.47491248 6.99695587 62.99703393 9.4375 65.375 C14.7349712 68.73437198 19.91091851 68.72748883 26 68 C38.12683803 64.62605647 48.50635345 57.73109021 59 51 C60.8925835 49.78776604 62.78614878 48.57763049 64.68701172 47.37841797 C66.26353539 46.38288682 67.83134365 45.37359111 69.3984375 44.36328125 C72 43 72 43 76 43 C75.08815546 47.3096838 72.9193471 50.58850916 70.5625 54.25 C70.11946533 54.94947754 69.67643066 55.64895508 69.2199707 56.36962891 C67.81810615 58.58283896 66.40966493 60.79175163 65 63 C53.32346362 79.91623459 53.32346362 79.91623459 48.8125 99.375 C48.79832031 100.68210937 48.78414062 101.98921875 48.76953125 103.3359375 C48.98750891 106.80141287 49.27528328 109.00758929 51 112 C53.83191784 113.75185531 55.9679706 114.24912923 59.2734375 114.23046875 C60.09078369 114.22917969 60.90812988 114.22789062 61.75024414 114.2265625 C62.61641357 114.21367187 63.48258301 114.20078125 64.375 114.1875 C65.27404053 114.18105469 66.17308105 114.17460937 67.09936523 114.16796875 C73.20198257 114.09818093 79.2430075 113.73974128 85.32421875 113.22265625 C92.87174542 112.76547344 100.44192203 112.92748113 108 113 C106.50114321 116.81912097 104.38056994 118.47509348 101.0625 120.8125 C100.07121094 121.51375 99.07992187 122.215 98.05859375 122.9375 C95.28667207 124.80668856 92.47747928 126.57001633 89.625 128.3125 C82.8545208 132.52567808 76.97308378 137.74862428 71 143 C78.91665168 142.22470223 86.72096302 140.94953766 94.5625 139.625 C95.90315256 139.40011674 97.24381014 139.17526337 98.58447266 138.95043945 C107.74422751 137.4085432 116.88547829 135.79087248 126 134 C125.34 136.97 124.68 139.94 124 143 C115.83907805 145.18564315 107.72636011 146.79935645 99.375 148.05078125 C97.01672853 148.42257085 94.65866081 148.7956548 92.30078125 149.16992188 C88.63108102 149.74814028 84.96087443 150.31834183 81.28662109 150.86694336 C77.7077558 151.40455643 74.13535598 151.9747565 70.5625 152.55078125 C69.46147949 152.70726639 68.36045898 152.86375153 67.22607422 153.02497864 C61.91854139 153.76514252 61.91854139 153.76514252 57.4190979 156.39700317 C54.00179364 161.32116663 54.00508866 166.2890522 55 172 C58.29854112 180.34651093 65.15629647 187.47057928 70.73291016 194.41699219 C78 203.49595376 78 203.49595376 78 206 C72.64420464 205.6306348 67.88945163 204.75141428 62.75 203.1875 C56.57573133 201.34935895 50.38760764 199.96886653 44.0625 198.75 C43.1746582 198.5749292 42.28681641 198.3998584 41.37207031 198.21948242 C33.06355516 196.31740739 33.06355516 196.31740739 25.0859375 198.0390625 C23.41889007 201.04934238 23.55899776 204.02538642 23.625 207.375 C23.63080078 208.08382324 23.63660156 208.79264648 23.64257812 209.52294922 C23.78166191 215.27303339 24.7883414 220.5880689 26.34375 226.1328125 C27.0403757 229.17640338 27.11079931 231.88838615 27 235 C22.21097182 231.19054576 18.10093212 227.02008464 14 222.5 C7.94259725 215.77015758 7.94259725 215.77015758 1 210 C-2.58599823 210.30252248 -4.82188192 212.18048673 -7.625 214.3125 C-21.56669582 224.25053098 -38.60955062 226.71954813 -55.25 223.9375 C-63.44623296 222.20222355 -70.59228634 218.83519927 -78 215 C-88.28194413 222.6846263 -98.46639449 230.78365482 -101 244 C-101.50469567 252.96498884 -98.13723421 259.61507736 -92.625 266.4375 C-78.29139876 281.86343888 -57.7265702 286.47131957 -38 291 C-37.14873535 291.20012695 -36.2974707 291.40025391 -35.42041016 291.60644531 C-10.53048876 297.38726496 14.91171988 298.5591695 40.375 298.4375 C41.67907806 298.43545563 42.98315613 298.43341125 44.32675171 298.43130493 C68.59319438 298.38287901 92.6286504 296.92609504 116.74645996 294.24993896 C118.80597876 294.0215188 120.8663314 293.80064926 122.92675781 293.58056641 C129.6403086 292.85495658 136.32173005 291.99768384 143 291 C144.3312793 290.80784912 144.3312793 290.80784912 145.68945312 290.61181641 C177.89961299 285.89410925 211.04873123 279.02899248 241.8515625 268.35546875 C246.92145749 266.61726966 252.10454152 265.67752289 257.3671875 264.71484375 C271.43930807 261.95236371 283.74274227 256.47827233 296.3125 249.8125 C297.77139645 249.04827527 299.23062827 248.28469042 300.69018555 247.52172852 C304.80314759 245.36586622 308.90367483 243.18727584 313 241 C314.01320313 240.46020508 315.02640625 239.92041016 316.0703125 239.36425781 C335.91396874 228.7326824 358.28127447 216.23006246 368.375 195.125 C369.79518291 188.02408546 370.04989838 181.30140989 366.328125 174.90625 C362.85259789 169.91784639 359.39868791 165.69045595 354.0625 162.6875 C352.3125 161.5625 352.3125 161.5625 351 160 C350.40584671 156.26532221 350.5864902 152.74784275 351 149 C374.80758159 166.28582387 374.80758159 166.28582387 378 180 C379.47219781 193.20424838 376.17683753 201.92618305 368.12084961 212.17504883 C340.0976596 246.3571817 288.98560713 263.87359532 247.80664062 276.15820312 C244.76585158 277.07022823 241.73475787 278.01113368 238.703125 278.953125 C214.82433017 286.29327876 190.49132087 291.87003193 165.93896484 296.45019531 C164.05228688 296.8031442 162.16702691 297.16380956 160.28369141 297.53417969 C142.55401489 300.98999157 124.63581775 302.25250855 106.6484375 303.60571289 C105.62711731 303.68289551 104.60579712 303.76007813 103.55352783 303.83959961 C101.51841949 303.99336462 99.48322192 304.14595323 97.44793701 304.29736328 C91.8702632 304.72628278 86.36770023 305.32428296 80.828125 306.09765625 C69.51090155 307.58188371 58.06820426 307.33484104 46.67578125 307.31567383 C42.79918572 307.31253976 38.92337535 307.33595449 35.046875 307.36132812 C-7.6510453 307.47008415 -65.39963893 304.32971801 -98.3125 273.0625 C-105.30176795 265.70685913 -109.7363582 257.55070114 -110.09765625 247.203125 C-109.40581679 235.25623875 -104.32550658 226.4383523 -96 218 C-92.46472145 215.11619675 -88.82010482 212.49199361 -85 210 C-86.2684375 208.6078125 -86.2684375 208.6078125 -87.5625 207.1875 C-98.42612995 194.47474154 -105.3072637 179.93995874 -104 163 C-101.6115781 145.86307288 -92.5248558 131.55598501 -79 121 C-79.56660494 117.71553756 -80.3880202 116.28123984 -82.96484375 114.1875 C-83.90553711 113.41829224 -83.90553711 113.41829224 -84.86523438 112.63354492 C-85.54908203 112.0944751 -86.23292969 111.55540527 -86.9375 111 C-87.9884082 110.15755737 -87.9884082 110.15755737 -89.06054688 109.2980957 C-97.02333947 103.0216963 -105.46665669 97.46294866 -114 92 C-110.30172479 90.7672416 -107.20396004 91.1841984 -103.40234375 91.55859375 C-102.65344376 91.62659683 -101.90454376 91.69459991 -101.13294983 91.7646637 C-98.73387523 91.98300499 -96.33567492 92.20950365 -93.9375 92.4375 C-79.96352862 94.28199616 -79.96352862 94.28199616 -66 94 C-63.55584986 92.00045733 -63.55584986 92.00045733 -63.77929688 88.01611328 C-63.89855134 82.84028876 -64.65864279 77.83727463 -65.53125 72.7421875 C-65.68662231 71.79489777 -65.84199463 70.84760803 -66.0020752 69.87161255 C-66.49461545 66.87157499 -66.99635779 63.87319224 -67.5 60.875 C-68.00307286 57.86958583 -68.50391886 54.86388265 -68.9979248 51.85696411 C-69.30410511 49.99398359 -69.61543283 48.13183923 -69.93273926 46.27072144 C-70.72808823 41.43924507 -71.16296634 36.89647337 -71 32 C-67.46183947 33.51031326 -65.16633853 35.57593356 -62.453125 38.28125 C-61.18662109 39.54388672 -61.18662109 39.54388672 -59.89453125 40.83203125 C-59.02183594 41.71246094 -58.14914062 42.59289062 -57.25 43.5 C-56.36183594 44.38042969 -55.47367187 45.26085937 -54.55859375 46.16796875 C-53.71941406 47.00972656 -52.88023437 47.85148437 -52.015625 48.71875 C-51.24508789 49.49154297 -50.47455078 50.26433594 -49.68066406 51.06054688 C-48 53 -48 53 -48 55 C-47.46375 55.226875 -46.9275 55.45375 -46.375 55.6875 C-44 57 -44 57 -41.1875 59.625 C-38.17237982 62.25582374 -38.17237982 62.25582374 -34.4375 62.5625 C-30.22072963 61.87248303 -28.87180218 61.17409715 -26 58 C-22.12128128 51.15226416 -19.16373619 43.83345274 -16.1875 36.5625 C-15.31529512 34.45304603 -14.44289661 32.34367212 -13.5703125 30.234375 C-12.71352242 28.15625794 -11.85675102 26.07813317 -11 24 C-9.52721168 20.43481152 -8.04754535 16.87259807 -6.5625 13.3125 C-6.24498779 12.54172119 -5.92747559 11.77094238 -5.6003418 10.97680664 C-3.9925777 7.12775981 -2.34875515 3.47177511 0 0 Z " fill="#E2D5B8" transform="translate(372,337)"/>
<path d="M0 0 C0.33 0 0.66 0 1 0 C1.0501123 1.23451904 1.10022461 2.46903809 1.15185547 3.7409668 C1.34211712 8.38012765 1.54201574 13.01883426 1.74462891 17.6574707 C1.83053685 19.65410638 1.91393134 21.65085203 1.99462891 23.64770508 C2.43696762 34.5505352 2.91386946 45.26523109 5 56 C5.19468872 57.08039551 5.19468872 57.08039551 5.39331055 58.18261719 C6.12744964 61.47491248 6.99695587 62.99703393 9.4375 65.375 C14.7349712 68.73437198 19.91091851 68.72748883 26 68 C38.12683803 64.62605647 48.50635345 57.73109021 59 51 C60.8925835 49.78776604 62.78614878 48.57763049 64.68701172 47.37841797 C66.26353539 46.38288682 67.83134365 45.37359111 69.3984375 44.36328125 C72 43 72 43 76 43 C75.08815546 47.3096838 72.9193471 50.58850916 70.5625 54.25 C70.11946533 54.94947754 69.67643066 55.64895508 69.2199707 56.36962891 C67.81810615 58.58283896 66.40966493 60.79175163 65 63 C53.32346362 79.91623459 53.32346362 79.91623459 48.8125 99.375 C48.79832031 100.68210937 48.78414062 101.98921875 48.76953125 103.3359375 C48.98750891 106.80141287 49.27528328 109.00758929 51 112 C53.83191784 113.75185531 55.9679706 114.24912923 59.2734375 114.23046875 C60.09078369 114.22917969 60.90812988 114.22789062 61.75024414 114.2265625 C62.61641357 114.21367187 63.48258301 114.20078125 64.375 114.1875 C65.27404053 114.18105469 66.17308105 114.17460937 67.09936523 114.16796875 C73.20198257 114.09818093 79.2430075 113.73974128 85.32421875 113.22265625 C92.87174542 112.76547344 100.44192203 112.92748113 108 113 C106.50114321 116.81912097 104.38056994 118.47509348 101.0625 120.8125 C100.07121094 121.51375 99.07992187 122.215 98.05859375 122.9375 C95.28667207 124.80668856 92.47747928 126.57001633 89.625 128.3125 C82.8545208 132.52567808 76.97308378 137.74862428 71 143 C78.91665168 142.22470223 86.72096302 140.94953766 94.5625 139.625 C95.90315256 139.40011674 97.24381014 139.17526337 98.58447266 138.95043945 C107.74422751 137.4085432 116.88547829 135.79087248 126 134 C125.34 136.97 124.68 139.94 124 143 C115.83907805 145.18564315 107.72636011 146.79935645 99.375 148.05078125 C97.01672853 148.42257085 94.65866081 148.7956548 92.30078125 149.16992188 C88.63108102 149.74814028 84.96087443 150.31834183 81.28662109 150.86694336 C77.7077558 151.40455643 74.13535598 151.9747565 70.5625 152.55078125 C69.46147949 152.70726639 68.36045898 152.86375153 67.22607422 153.02497864 C61.91854139 153.76514252 61.91854139 153.76514252 57.4190979 156.39700317 C54.00179364 161.32116663 54.00508866 166.2890522 55 172 C58.29854112 180.34651093 65.15629647 187.47057928 70.73291016 194.41699219 C78 203.49595376 78 203.49595376 78 206 C72.64420464 205.6306348 67.88945163 204.75141428 62.75 203.1875 C56.57573133 201.34935895 50.38760764 199.96886653 44.0625 198.75 C43.1746582 198.5749292 42.28681641 198.3998584 41.37207031 198.21948242 C33.06355516 196.31740739 33.06355516 196.31740739 25.0859375 198.0390625 C23.41889007 201.04934238 23.55899776 204.02538642 23.625 207.375 C23.63080078 208.08382324 23.63660156 208.79264648 23.64257812 209.52294922 C23.78166191 215.27303339 24.7883414 220.5880689 26.34375 226.1328125 C27.0403757 229.17640338 27.11079931 231.88838615 27 235 C22.21134423 231.190842 18.09911717 227.02140406 14 222.5 C9.89664957 217.97497649 5.77059143 213.83721484 1 210 C0.34 209.34 -0.32 208.68 -1 208 C-0.50371094 207.58492187 -0.00742187 207.16984375 0.50390625 206.7421875 C8.49685248 199.49241843 12.80584301 190.20269563 16 180 C21.34275792 179.7918406 25.78570212 180.45683597 30.875 181.875 C31.55046875 182.04902344 32.2259375 182.22304688 32.921875 182.40234375 C34.63456693 182.86662771 36.32078978 183.42630474 38 184 C38.33 184.66 38.66 185.32 39 186 C37.68 186 36.36 186 35 186 C40.61 187.32 46.22 188.64 52 190 C50.35 188.2675 48.7 186.535 47 184.75 C32.78551406 169.35609991 32.78551406 169.35609991 32.0625 161.25 C32.67625048 155.71634645 36.08960221 152.66079793 40 149 C40.48259277 148.53658203 40.96518555 148.07316406 41.46240234 147.59570312 C47.53170814 141.76826957 53.70969644 136.20882364 60.48828125 131.20703125 C60.98714844 130.80871094 61.48601562 130.41039062 62 130 C62 129.67 62 129.34 62 129 C61.18321777 129.04600342 60.36643555 129.09200684 59.52490234 129.1394043 C55.80895672 129.33910406 52.09223588 129.51354069 48.375 129.6875 C47.08980469 129.76033203 45.80460938 129.83316406 44.48046875 129.90820312 C43.23652344 129.96298828 41.99257813 130.01777344 40.7109375 130.07421875 C39.56931152 130.13182373 38.42768555 130.18942871 37.25146484 130.2487793 C32.62822576 129.89504145 29.30078724 128.38750639 26.125 125 C24.39897578 120.39726875 24.77015925 115.86070615 25 111 C23.81945064 117.27255745 23.57175049 121.4705653 27 127 C32.48388923 130.83072327 37.96485458 130.34878753 44.375 130.1875 C45.39722656 130.17396484 46.41945313 130.16042969 47.47265625 130.14648438 C49.98232049 130.11130217 52.4908809 130.06207539 55 130 C50.42677316 132.61011097 46.27760629 132.36756478 41.125 132.375 C40.23941406 132.39949219 39.35382813 132.42398438 38.44140625 132.44921875 C32.78541155 132.47450636 29.44656326 131.83830697 25 128 C21.64759875 123.19489155 21.18325079 118.67135969 22 113 C24.14589083 105.50756762 28.16033502 98.73221259 32 92 C32.66 92 33.32 92 34 92 C35.98 88.04 37.96 84.08 40 80 C38.14375 81.134375 36.2875 82.26875 34.375 83.4375 C31.13895308 85.41508423 28.69253167 86.88605027 24.9375 87.50390625 C21.40919902 88.09977623 19.51969075 89.42872568 16.625 91.5 C11.82915224 94.66682338 8.76822438 96.19890429 3 96 C0.03462985 95.05647313 -1.29969674 94.02572299 -3.05078125 91.4609375 C-7.98227302 81.9026021 -9.75089643 69.50225917 -10.625 58.875 C-10.74875 57.59625 -10.8725 56.3175 -11 55 C-11.66 54.67 -12.32 54.34 -13 54 C-13.24645264 54.75095947 -13.49290527 55.50191895 -13.74682617 56.27563477 C-14.88133787 59.70882338 -16.03422426 63.13557131 -17.1875 66.5625 C-17.76854492 68.33463867 -17.76854492 68.33463867 -18.36132812 70.14257812 C-20.52686418 76.53180433 -22.57859475 81.8588311 -27 87 C-29.4375 88.1875 -29.4375 88.1875 -32 88 C-36.63763498 85.58036436 -39.87608787 82.23214292 -43.38671875 78.390625 C-45.02373571 76.67354833 -45.02373571 76.67354833 -48 77 C-49.38671875 75.46875 -49.38671875 75.46875 -50.6875 73.5 C-51.12449219 72.8503125 -51.56148438 72.200625 -52.01171875 71.53125 C-52.50091797 70.77328125 -52.50091797 70.77328125 -53 70 C-52.85737588 71.5627962 -52.71074489 73.12522696 -52.5625 74.6875 C-52.48128906 75.55761719 -52.40007812 76.42773438 -52.31640625 77.32421875 C-52.05533818 79.94791629 -52.05533818 79.94791629 -51.4765625 82.26953125 C-50.79356785 86.18275471 -50.81571824 90.03513149 -50.8125 94 C-50.80025391 94.7940625 -50.78800781 95.588125 -50.77539062 96.40625 C-50.75522031 104.47437543 -50.75522031 104.47437543 -53 108 C-55.43359375 109.3359375 -55.43359375 109.3359375 -58.4375 110.375 C-64.06489357 112.50648562 -68.82311094 115.21540729 -73.8203125 118.546875 C-76 120 -76 120 -78 121 C-78.3609375 120.28457031 -78.721875 119.56914062 -79.09375 118.83203125 C-81.40630955 115.39636389 -84.23219753 113.14735346 -87.5 110.6875 C-88.12148926 110.21038574 -88.74297852 109.73327148 -89.38330078 109.24169922 C-91.24756392 107.81687294 -93.12155017 106.40605261 -95 105 C-96.01835937 104.23558594 -97.03671875 103.47117187 -98.0859375 102.68359375 C-103.25352208 98.86942418 -108.5019401 95.31958334 -114 92 C-110.30172479 90.7672416 -107.20396004 91.1841984 -103.40234375 91.55859375 C-102.65344376 91.62659683 -101.90454376 91.69459991 -101.13294983 91.7646637 C-98.73387523 91.98300499 -96.33567492 92.20950365 -93.9375 92.4375 C-79.96352862 94.28199616 -79.96352862 94.28199616 -66 94 C-63.55584986 92.00045733 -63.55584986 92.00045733 -63.77929688 88.01611328 C-63.89855134 82.84028876 -64.65864279 77.83727463 -65.53125 72.7421875 C-65.68662231 71.79489777 -65.84199463 70.84760803 -66.0020752 69.87161255 C-66.49461545 66.87157499 -66.99635779 63.87319224 -67.5 60.875 C-68.00307286 57.86958583 -68.50391886 54.86388265 -68.9979248 51.85696411 C-69.30410511 49.99398359 -69.61543283 48.13183923 -69.93273926 46.27072144 C-70.72808823 41.43924507 -71.16296634 36.89647337 -71 32 C-67.46183947 33.51031326 -65.16633853 35.57593356 -62.453125 38.28125 C-61.18662109 39.54388672 -61.18662109 39.54388672 -59.89453125 40.83203125 C-59.02183594 41.71246094 -58.14914062 42.59289062 -57.25 43.5 C-56.36183594 44.38042969 -55.47367187 45.26085937 -54.55859375 46.16796875 C-53.71941406 47.00972656 -52.88023437 47.85148437 -52.015625 48.71875 C-51.24508789 49.49154297 -50.47455078 50.26433594 -49.68066406 51.06054688 C-48 53 -48 53 -48 55 C-47.46375 55.226875 -46.9275 55.45375 -46.375 55.6875 C-44 57 -44 57 -41.1875 59.625 C-38.17237982 62.25582374 -38.17237982 62.25582374 -34.4375 62.5625 C-30.22072963 61.87248303 -28.87180218 61.17409715 -26 58 C-22.12128128 51.15226416 -19.16373619 43.83345274 -16.1875 36.5625 C-15.31529512 34.45304603 -14.44289661 32.34367212 -13.5703125 30.234375 C-12.71352242 28.15625794 -11.85675102 26.07813317 -11 24 C-9.52721168 20.43481152 -8.04754535 16.87259807 -6.5625 13.3125 C-6.24498779 12.54172119 -5.92747559 11.77094238 -5.6003418 10.97680664 C-3.9925777 7.12775981 -2.34875515 3.47177511 0 0 Z " fill="#CF9D28" transform="translate(372,337)"/>
<path d="M0 0 C23.80758159 17.28582387 23.80758159 17.28582387 27 31 C28.47219781 44.20424838 25.17683753 52.92618305 17.12084961 63.17504883 C-10.9023404 97.3571817 -62.01439287 114.87359532 -103.19335938 127.15820312 C-106.23414842 128.07022823 -109.26524213 129.01113368 -112.296875 129.953125 C-136.17566983 137.29327876 -160.50867913 142.87003193 -185.06103516 147.45019531 C-186.94771312 147.8031442 -188.83297309 148.16380956 -190.71630859 148.53417969 C-208.44598511 151.98999157 -226.36418225 153.25250855 -244.3515625 154.60571289 C-245.37288269 154.68289551 -246.39420288 154.76007813 -247.44647217 154.83959961 C-249.48158051 154.99336462 -251.51677808 155.14595323 -253.55206299 155.29736328 C-259.1297368 155.72628278 -264.63229977 156.32428296 -270.171875 157.09765625 C-281.48909845 158.58188371 -292.93179574 158.33484104 -304.32421875 158.31567383 C-308.20081428 158.31253976 -312.07662465 158.33595449 -315.953125 158.36132812 C-358.6510453 158.47008415 -416.39963893 155.32971801 -449.3125 124.0625 C-456.30176795 116.70685913 -460.7363582 108.55070114 -461.09765625 98.203125 C-460.55108189 88.76471901 -457.50136284 80.86254966 -451 74 C-451 75.33333333 -451 76.66666667 -451 78 C-449.15274948 78.69159401 -449.15274948 78.69159401 -447 79 C-445.515 78.01 -445.515 78.01 -444 77 C-445.04863937 79.97114488 -446.18989834 82.27297886 -448 84.875 C-452.22902896 91.48285774 -452.59714023 97.49935626 -451 105 C-446.59243482 118.55011466 -434.12414506 126.0980596 -422.2734375 132.46484375 C-411.82436954 137.28867601 -400.16375401 139.43710772 -389 142 C-388.14873535 142.20012695 -387.2974707 142.40025391 -386.42041016 142.60644531 C-361.53048876 148.38726496 -336.08828012 149.5591695 -310.625 149.4375 C-309.32092194 149.43545563 -308.01684387 149.43341125 -306.67324829 149.43130493 C-282.40680562 149.38287901 -258.3713496 147.92609504 -234.25354004 145.24993896 C-232.19402124 145.0215188 -230.1336686 144.80064926 -228.07324219 144.58056641 C-221.3596914 143.85495658 -214.67826995 142.99768384 -208 142 C-207.11248047 141.87189941 -206.22496094 141.74379883 -205.31054688 141.61181641 C-173.10038701 136.89410925 -139.95126877 130.02899248 -109.1484375 119.35546875 C-104.07854251 117.61726966 -98.89545848 116.67752289 -93.6328125 115.71484375 C-79.56069193 112.95236371 -67.25725773 107.47827233 -54.6875 100.8125 C-53.22860355 100.04827527 -51.76937173 99.28469042 -50.30981445 98.52172852 C-46.19685241 96.36586622 -42.09632517 94.18727584 -38 92 C-36.98679687 91.46020508 -35.97359375 90.92041016 -34.9296875 90.36425781 C-15.08603126 79.7326824 7.28127447 67.23006246 17.375 46.125 C18.79518291 39.02408546 19.04989838 32.30140989 15.328125 25.90625 C11.85259789 20.91784639 8.39868791 16.69045595 3.0625 13.6875 C1.3125 12.5625 1.3125 12.5625 0 11 C-0.59415329 7.26532221 -0.4135098 3.74784275 0 0 Z " fill="#E1D5BD" transform="translate(723,486)"/>
<path d="M0 0 C2.61458901 1.9060283 2.99728688 2.98514075 3.58984375 6.23046875 C3.70457031 7.53628906 3.81929688 8.84210938 3.9375 10.1875 C5.42856449 27.85772858 5.42856449 27.85772858 13.6875 42.4375 C19.01149224 43.73252514 22.53397955 42.83414595 27.19921875 40.1796875 C29.45585481 38.77271081 31.64869913 37.30596669 33.8515625 35.8125 C37.09146899 33.94734291 39.35386686 33.54788969 43 33 C45.79357711 31.63505746 45.79357711 31.63505746 48.375 29.9375 C49.24898438 29.38964844 50.12296875 28.84179688 51.0234375 28.27734375 C51.67570312 27.85582031 52.32796875 27.43429687 53 27 C53.495 27.99 53.495 27.99 54 29 C52.70703125 31.6796875 52.70703125 31.6796875 50.8125 34.875 C50.20019531 35.92429687 49.58789062 36.97359375 48.95703125 38.0546875 C47 41 47 41 44.9609375 43.0078125 C42.55945823 45.44756236 41.3067255 47.92704267 39.8125 51 C39.30332031 52.03125 38.79414063 53.0625 38.26953125 54.125 C35.47697094 60.44907503 34.87211261 66.79442533 37.1875 73.375 C39.18943527 76.27435452 40.81932729 77.53199721 44 79 C44.66 79 45.32 79 46 79 C45.071875 78.5875 44.14375 78.175 43.1875 77.75 C38.62162162 75.24324324 38.62162162 75.24324324 37 72 C35.74610354 66.52465212 35.7145867 62.24300698 38 57 C39.00476761 60.01430284 39.01734775 61.75283928 38.875 64.875 C38.84422617 69.09716942 39.05398414 71.74922388 42 75 C46.00166093 77.04901382 49.16087324 77.1798688 53.61328125 76.9765625 C54.86044922 76.925 56.10761719 76.8734375 57.39257812 76.8203125 C58.68615234 76.75585938 59.97972656 76.69140625 61.3125 76.625 C62.62541016 76.56828125 63.93832031 76.5115625 65.29101562 76.453125 C68.52791303 76.31187857 71.76400866 76.16048335 75 76 C75 76.99 75 77.98 75 79 C73.0848583 80.83109159 71.18765406 82.4758497 69.125 84.125 C67.92872214 85.10950524 66.7334205 86.0951978 65.5390625 87.08203125 C64.94125977 87.57268066 64.34345703 88.06333008 63.72753906 88.56884766 C59.69355844 91.91073494 55.81159412 95.40803305 52 99 C51.43023437 99.51949219 50.86046875 100.03898437 50.2734375 100.57421875 C47.72224004 103.17529996 46.57611101 105.57016483 46.1875 109.125 C46.73922137 118.47273628 54.84457968 126.23291486 61.30078125 132.30859375 C63.3234189 134.32193191 64.72550798 136.45101595 66 139 C59.17576662 137.76583013 52.60632156 136.1084005 46 134 C46.99 133.67 47.98 133.34 49 133 C47.71139947 132.53311575 46.41883668 132.07717129 45.125 131.625 C44.40570313 131.36976563 43.68640625 131.11453125 42.9453125 130.8515625 C38.68647123 129.62022643 34.35328225 128.82491045 30 128 C30.02094727 127.26587891 30.04189453 126.53175781 30.06347656 125.77539062 C30.64656515 102.20089759 29.01624105 81.83631443 13.10546875 63.125 C5.79013887 55.74180991 -2.04526179 52.78096021 -12.37426758 52.671875 C-13.26138428 52.67703125 -14.14850098 52.6821875 -15.0625 52.6875 C-16.4405481 52.68943359 -16.4405481 52.68943359 -17.84643555 52.69140625 C-25.53749406 52.79892651 -32.57953049 53.90480861 -40 56 C-39.83886719 55.35546875 -39.67773438 54.7109375 -39.51171875 54.046875 C-38.84786626 50.0941655 -38.80919752 46.25136928 -38.8125 42.25 C-38.81185547 41.44522217 -38.81121094 40.64044434 -38.81054688 39.8112793 C-38.86015181 34.24932622 -39.58614723 29.3903137 -41 24 C-41.15062868 21.63424363 -41.10095917 19.3725406 -41 17 C-38.93105065 18.99760627 -37.0814519 20.88270926 -35.4375 23.25 C-34.7259375 24.11625 -34.7259375 24.11625 -34 25 C-33.01 25 -32.02 25 -31 25 C-29.09765625 26.6796875 -29.09765625 26.6796875 -27.0625 28.875 C-23.54880733 32.69660349 -23.54880733 32.69660349 -19 35 C-16.08538771 34.74153166 -14.52432474 34.60268752 -12.56738281 32.35327148 C-9.35756845 26.10313558 -6.9563975 19.72836628 -4.75 13.0625 C-4.05824543 11.01139684 -3.36558377 8.9605993 -2.671875 6.91015625 C-2.3737793 6.01433838 -2.07568359 5.11852051 -1.76855469 4.19555664 C-1 2 -1 2 0 0 Z " fill="#DFC170" transform="translate(359,389)"/>
<path d="M0 0 C1 3 1 3 0.8125 6 C-1 9 -1 9 -2.96044922 9.80200195 C-13.1284505 12.18936119 -23.41430518 13.91331613 -33.71118164 15.64428711 C-36.9551043 16.19046402 -40.19730677 16.74612069 -43.43945312 17.30273438 C-45.51032124 17.65420855 -47.58128163 18.00513958 -49.65234375 18.35546875 C-50.6169603 18.52104782 -51.58157684 18.68662689 -52.57542419 18.85722351 C-53.47728958 19.00770645 -54.37915497 19.15818939 -55.30834961 19.31323242 C-56.09600204 19.44630295 -56.88365448 19.57937347 -57.69517517 19.71647644 C-60.15159756 20.01864848 -62.52753094 20.04809094 -65 20 C-64.25818505 18.89031779 -63.50610453 17.78749544 -62.75 16.6875 C-62.12351562 15.76517578 -62.12351562 15.76517578 -61.484375 14.82421875 C-57.44525744 9.86035585 -53.22325253 9.21768072 -47.16796875 8.28125 C-46.2991658 8.13723755 -45.43036285 7.9932251 -44.53523254 7.84484863 C-41.7542786 7.3858896 -38.97113909 6.94235284 -36.1875 6.5 C-32.5553 5.91043855 -28.92409827 5.31486438 -25.29296875 4.71875 C-24.41446259 4.57566406 -23.53595642 4.43257813 -22.63082886 4.28515625 C-15.04751198 3.03849143 -7.52055327 1.58098839 0 0 Z " fill="#E2D5BC" transform="translate(497,471)"/>
<path d="M0 0 C0.66 0.33 1.32 0.66 2 1 C2.78824803 3.85851457 3.45904351 6.66453212 4.0625 9.5625 C4.32256836 10.74295898 4.32256836 10.74295898 4.58789062 11.94726562 C6.53019065 20.97412358 7.40695046 29.75459429 7 39 C6.979375 39.72058594 6.95875 40.44117188 6.9375 41.18359375 C6.6875 43 6.6875 43 5 46 C2.29221579 47.37338815 -0.36487223 48.30948351 -3.2734375 49.17578125 C-6.28885292 50.00336795 -6.28885292 50.00336795 -10 52 C-12.97 48.535 -12.97 48.535 -16 45 C-15.67 44.34 -15.34 43.68 -15 43 C-9.06 43 -3.12 43 3 43 C4.93678757 37.6483868 4.93678757 37.6483868 4.86328125 32.63671875 C4.78190918 31.83975586 4.70053711 31.04279297 4.61669922 30.22167969 C4.51631348 29.38540039 4.41592773 28.54912109 4.3125 27.6875 C4.21727051 26.81899414 4.12204102 25.95048828 4.02392578 25.05566406 C3.05471835 16.63749273 1.61568245 8.315379 0 0 Z " fill="#D9B45B" transform="translate(313,400)"/>
<path d="M0 0 C-0.43868408 0.4031543 -0.87736816 0.80630859 -1.3293457 1.22167969 C-3.32691005 3.06103419 -5.31973017 4.90545272 -7.3125 6.75 C-8.34793945 7.70132812 -8.34793945 7.70132812 -9.40429688 8.671875 C-10.07138672 9.290625 -10.73847656 9.909375 -11.42578125 10.546875 C-12.34484253 11.39523926 -12.34484253 11.39523926 -13.2824707 12.26074219 C-16.26934707 15.28540562 -18.44614956 17.71318255 -18.625 22.0625 C-18.48906265 27.5362439 -15.7313534 31.17610524 -12.62890625 35.51953125 C-11.1398147 37.78709272 -10.43752919 39.3563377 -10 42 C-11.9375 41.25 -11.9375 41.25 -14 40 C-14.75 37.875 -14.75 37.875 -15 36 C-15.66 36 -16.32 36 -17 36 C-21.95249458 30.81167234 -22.54222384 26.93904442 -22.46875 19.8671875 C-21.93342971 16.59281173 -21.03135479 14.61584839 -19 12 C-18.01 12 -17.02 12 -16 12 C-16 11.01 -16 10.02 -16 9 C-5.94254208 -1.98084736 -5.94254208 -1.98084736 0 0 Z " fill="#DBB862" transform="translate(424,476)"/>
<path d="M0 0 C0.66 0.33 1.32 0.66 2 1 C1.14767706 7.24546985 -0.57284821 12.97105878 -2.875 18.8125 C-3.24165771 19.76298218 -3.24165771 19.76298218 -3.61572266 20.73266602 C-5.22744451 24.69913549 -7.05582137 27.88398215 -10 31 C-13.25 32.1875 -13.25 32.1875 -17 32 C-20.01311783 30.36741715 -22.46287018 28.28818389 -25 26 C-25.81791016 25.319375 -25.81791016 25.319375 -26.65234375 24.625 C-28.0625 23.375 -28.0625 23.375 -30 21 C-29.62109375 18.8515625 -29.62109375 18.8515625 -29 17 C-28.09507812 17.93972656 -28.09507812 17.93972656 -27.171875 18.8984375 C-26.37265625 19.71570313 -25.5734375 20.53296875 -24.75 21.375 C-23.96109375 22.18710937 -23.1721875 22.99921875 -22.359375 23.8359375 C-20.20648755 25.81060579 -18.76268071 27.11123063 -16 28 C-13.16783372 27.82538524 -11.61693299 27.64505529 -9.62890625 25.56640625 C-5.32050056 17.47039117 -2.73782937 8.72153893 0 0 Z " fill="#D6AE4F" transform="translate(356,396)"/>
<path d="M0 0 C0.28875 0.61875 0.5775 1.2375 0.875 1.875 C1.93720042 4.13325765 1.93720042 4.13325765 4 6 C4.55941326 7.60551606 5.05224024 9.23483653 5.5 10.875 C6.9736207 16.73094712 6.9736207 16.73094712 10.625 21.3125 C14.38941194 22.40219819 17.33960824 22.21630573 21 21 C23.92148083 19.32860907 26.74304035 17.60653427 29.51928711 15.70751953 C30.96845445 14.73531263 32.4815418 13.85997496 34 13 C34.99 13.33 35.98 13.66 37 14 C33.25314599 17.13887392 29.33522367 19.78414232 25.125 22.25 C24.53847656 22.61351562 23.95195312 22.97703125 23.34765625 23.3515625 C19.06364024 25.85606417 15.91669186 26.44101236 11 26 C7.77983035 24.95157267 6.44834786 23.8546631 4.875 20.85546875 C2.12290395 14.26865062 -0.45164873 7.22637967 0 0 Z " fill="#D7B051" transform="translate(362,410)"/>
<path d="M0 0 C-3.22515763 1.73662334 -6.51329166 2.8905928 -10 4 C-9.01 4.99 -8.02 5.98 -7 7 C-8.65 7.33 -10.3 7.66 -12 8 C-12 8.33 -12 8.66 -12 9 C-18.6 9 -25.2 9 -32 9 C-32 8.67 -32 8.34 -32 8 C-28.04 8 -24.08 8 -20 8 C-20.33 6.68 -20.66 5.36 -21 4 C-25.95 4 -30.9 4 -36 4 C-36 3.67 -36 3.34 -36 3 C-31.50077152 2.49289271 -27.00051028 1.99559191 -22.5 1.5 C-20.59734375 1.28537109 -20.59734375 1.28537109 -18.65625 1.06640625 C-12.40044504 0.38217758 -6.29374663 -0.19071959 0 0 Z " fill="#E7DDC6" transform="translate(499,631)"/>
<path d="M0 0 C0.66 0.66 1.32 1.32 2 2 C1.04482045 4.10560019 0.08574515 6.20943346 -0.875 8.3125 C-1.40867187 9.48425781 -1.94234375 10.65601563 -2.4921875 11.86328125 C-4 15 -4 15 -6 18 C-8.24966681 22.02571956 -8.22944577 25.38954868 -7.61328125 29.84375 C-6.64898512 33.23414149 -4.74727397 34.90683888 -2 37 C1.00015912 38.00005304 2.97423756 38.11575585 6.10546875 38.09765625 C7.57983398 38.09282227 7.57983398 38.09282227 9.08398438 38.08789062 C10.10814453 38.07951172 11.13230469 38.07113281 12.1875 38.0625 C13.22326172 38.05798828 14.25902344 38.05347656 15.32617188 38.04882812 C17.88417266 38.0370401 20.44205733 38.02058515 23 38 C18.42677316 40.61011097 14.27760629 40.36756478 9.125 40.375 C8.23941406 40.39949219 7.35382813 40.42398438 6.44140625 40.44921875 C0.78541155 40.47450636 -2.55343674 39.83830697 -7 36 C-10.35240125 31.19489155 -10.81674921 26.67135969 -10 21 C-7.85410917 13.50756762 -3.83966498 6.73221259 0 0 Z " fill="#CE9E2E" transform="translate(404,429)"/>
<path d="M0 0 C2.9375 0.8125 2.9375 0.8125 4.9375 3.8125 C4.6133631 7.13490324 4.32973697 8.42026303 1.9375 10.8125 C-0.87234248 11.17273622 -2.44491919 11.19582602 -4.875 9.6875 C-6.60708662 6.95262639 -6.46623601 4.97509871 -6.0625 1.8125 C-3.0625 -0.1875 -3.0625 -0.1875 0 0 Z " fill="#E0D5BD" transform="translate(413.0625,349.1875)"/>
<path d="M0 0 C2 2 2 2 2.25 5 C2 8 2 8 0 10 C-3.5 10.25 -3.5 10.25 -7 10 C-7.66 9.34 -8.32 8.68 -9 8 C-8.75 4.4375 -8.75 4.4375 -8 1 C-5.23749964 -0.38125018 -3.05268901 -0.19079306 0 0 Z " fill="#E2D6BF" transform="translate(479,686)"/>
<path d="M0 0 C0 0.33 0 0.66 0 1 C-1.98 1 -3.96 1 -6 1 C-5.67 2.32 -5.34 3.64 -5 5 C-8.25082673 7.16721782 -9.29232153 7.27221018 -13.0625 7.25 C-13.94035156 7.25515625 -14.81820313 7.2603125 -15.72265625 7.265625 C-18 7 -18 7 -20 5 C-19.625 2.875 -19.625 2.875 -19 1 C-12.63849395 0.34513908 -6.39628979 -0.12068471 0 0 Z " fill="#D7C9B1" transform="translate(484,634)"/>
<path d="M0 0 C8.38947287 -0.10443327 16.6054301 0.04244807 24.96875 0.77734375 C29.31658917 1.09670823 33.64354069 1.08850595 38 1 C38 1.99 38 2.98 38 4 C29.8942769 4.21354265 21.98957855 3.38100613 13.9375 2.5 C12.58142635 2.35503649 11.22530676 2.21050197 9.86914062 2.06640625 C6.578952 1.71514056 3.28929055 1.35956195 0 1 C0 0.67 0 0.34 0 0 Z " fill="#1E1F1E" transform="translate(354,632)"/>
<path d="M0 0 C0.88751953 0.23396484 0.88751953 0.23396484 1.79296875 0.47265625 C7.87320033 1.98683598 7.87320033 1.98683598 14 1 C14 0.67 14 0.34 14 0 C15.65 0 17.3 0 19 0 C19 0.99 19 1.98 19 3 C14.959592 3.67444768 10.91749334 4.33817587 6.875 5 C5.73289062 5.19078125 4.59078125 5.3815625 3.4140625 5.578125 C1.75117188 5.84882813 1.75117188 5.84882813 0.0546875 6.125 C-0.96125488 6.29257812 -1.97719727 6.46015625 -3.02392578 6.6328125 C-6.0475586 7.00586777 -8.95672597 7.0634842 -12 7 C-9.43048029 4.43048029 -7.35726995 4.3194831 -3.875 3.66015625 C-1.61695499 3.07609358 -1.61695499 3.07609358 0 0 Z " fill="#18191B" transform="translate(453,474)"/>
<path d="M0 0 C0.7425 0.185625 1.485 0.37125 2.25 0.5625 C4.90413536 1.17809292 4.90413536 1.17809292 7.0625 0.4375 C9.66626357 -0.15044661 10.69125622 0.77347987 13 2 C14.32 2 15.64 2 17 2 C17.33 2.99 17.66 3.98 18 5 C15 7 15 7 13 8 C11.23046875 7.2578125 11.23046875 7.2578125 9.1875 6.125 C6.12139391 4.50538112 3.47961473 3.43495184 0 3 C0 2.01 0 1.02 0 0 Z " fill="#DACCB3" transform="translate(288,618)"/>
<path d="M0 0 C3.45201639 1.47721422 5.64961936 3.43794001 8.25 6.125 C8.95640625 6.84945313 9.6628125 7.57390625 10.390625 8.3203125 C11.18726563 9.15175781 11.18726563 9.15175781 12 10 C11.67 10.66 11.34 11.32 11 12 C8.36 9.36 5.72 6.72 3 4 C3.33 10.6 3.66 17.2 4 24 C1.7057889 20.55868335 1.42562123 18.32284906 0.875 14.25 C0.70742188 13.05890625 0.53984375 11.8678125 0.3671875 10.640625 C0.00658448 7.06528442 -0.06444754 3.5906486 0 0 Z " fill="#DCAA2A" transform="translate(301,369)"/>
<path d="M0 0 C-1.485 1.485 -1.485 1.485 -3 3 C-2.32453125 2.79503906 -1.6490625 2.59007812 -0.953125 2.37890625 C0.38492188 1.97478516 0.38492188 1.97478516 1.75 1.5625 C2.63171875 1.29566406 3.5134375 1.02882813 4.421875 0.75390625 C6.60565835 0.11531506 8.78835498 -0.46775833 11 -1 C8.30603301 2.36745873 4.98511153 3.33860633 1 4.75 C-0.85625 5.42289063 -0.85625 5.42289063 -2.75 6.109375 C-6 7 -6 7 -9 6 C-8.34 5.34 -7.68 4.68 -7 4 C-9.64 4 -12.28 4 -15 4 C-12.69846709 1.69846709 -11.15124095 1.2422972 -8.0625 0.3125 C-7.18722656 0.04050781 -6.31195312 -0.23148438 -5.41015625 -0.51171875 C-3 -1 -3 -1 0 0 Z " fill="#E6DECB" transform="translate(650,598)"/>
<path d="M0 0 C4.29 1.32 8.58 2.64 13 4 C8 8 8 8 5 9 C3.02 6.69 1.04 4.38 -1 2 C-0.67 1.34 -0.34 0.68 0 0 Z " fill="#E0C171" transform="translate(298,443)"/>
<path d="M0 0 C2.41486943 2.41486943 2.2961925 3.12707789 2.3125 6.4375 C2.32925781 7.21996094 2.34601563 8.00242187 2.36328125 8.80859375 C2 11 2 11 0.7890625 12.765625 C-1.56966541 14.39304425 -3.09109686 14.36814397 -5.9375 14.3125 C-6.79214844 14.30863281 -7.64679688 14.30476563 -8.52734375 14.30078125 C-11 14 -11 14 -15 12 C-10.38 11.67 -5.76 11.34 -1 11 C-1.020625 9.370625 -1.04125 7.74125 -1.0625 6.0625 C-1.08386068 4.37500659 -1.07205511 2.68608966 -1 1 C-0.67 0.67 -0.34 0.34 0 0 Z " fill="#201B18" transform="translate(307,418)"/>
<path d="M0 0 C0.99 0.33 1.98 0.66 3 1 C-0.50807592 3.91479837 -4.08400485 6.41239065 -8 8.75 C-9.010625 9.36359375 -10.02125 9.9771875 -11.0625 10.609375 C-14.0415155 12.01965362 -15.7601175 12.30969465 -19 12 C-15.25 10 -15.25 10 -13 10 C-13 9.34 -13 8.68 -13 8 C-10.92171507 6.49687523 -8.87208449 5.14275176 -6.6875 3.8125 C-6.09259766 3.43158203 -5.49769531 3.05066406 -4.88476562 2.65820312 C-3.30619906 1.68637052 -1.65513469 0.83478151 0 0 Z " fill="#D4AA46" transform="translate(396,423)"/>
<path d="M0 0 C3.25516428 3.16474305 6.32008793 6.32752791 9 10 C9 10.66 9 11.32 9 12 C6.03 11.67 3.06 11.34 0 11 C-0.33 10.01 -0.66 9.02 -1 8 C0.32 7.67 1.64 7.34 3 7 C2.505 6.21625 2.01 5.4325 1.5 4.625 C0 2 0 2 0 0 Z " fill="#DBA824" transform="translate(441,531)"/>
<path d="M0 0 C1.26339822 3.79019466 0.49719015 5.37522384 -1 9 C-3.70879335 10.35439668 -6.00933268 10.06501451 -9 10 C-8.67 8.35 -8.34 6.7 -8 5 C-6.68 4.67 -5.36 4.34 -4 4 C-3.34 5.32 -2.68 6.64 -2 8 C-1.67 6.02 -1.34 4.04 -1 2 C-1.66 1.67 -2.32 1.34 -3 1 C-2.01 0.67 -1.02 0.34 0 0 Z " fill="#E7DDC6" transform="translate(497,471)"/>
<path d="M0 0 C1.48828125 1.11328125 1.48828125 1.11328125 3 3 C3.29296875 5.91796875 3.29296875 5.91796875 3.1875 9.1875 C3.14689453 10.81751953 3.14689453 10.81751953 3.10546875 12.48046875 C3.07066406 13.31191406 3.03585937 14.14335937 3 15 C2.34 15 1.68 15 1 15 C-1.43141495 10.1371701 -2.51837606 7.44084756 -1 2 C-0.67 1.34 -0.34 0.68 0 0 Z " fill="#DFBF6F" transform="translate(359,389)"/>
<path d="M0 0 C1.45792884 -0.05399736 2.91642712 -0.09279177 4.375 -0.125 C5.18710937 -0.14820313 5.99921875 -0.17140625 6.8359375 -0.1953125 C9 0 9 0 11 2 C9.24135754 4.1793144 8.30604 4.93686419 5.51953125 5.51171875 C4.17955078 5.59873047 4.17955078 5.59873047 2.8125 5.6875 C1.91144531 5.75324219 1.01039063 5.81898438 0.08203125 5.88671875 C-0.60503906 5.92410156 -1.29210937 5.96148438 -2 6 C-1.34 4.02 -0.68 2.04 0 0 Z " fill="#D8CBB2" transform="translate(634,601)"/>
<path d="M0 0 C0.66 0.33 1.32 0.66 2 1 C0.84371094 2.12148438 0.84371094 2.12148438 -0.3359375 3.265625 C-1.34922356 4.26014651 -2.36222975 5.25495323 -3.375 6.25 C-3.88289063 6.74113281 -4.39078125 7.23226563 -4.9140625 7.73828125 C-9.60524381 12.36773649 -11.1173568 15.52728322 -12 22 C-12.33 22 -12.66 22 -13 22 C-13.83687083 15.30503335 -13.83687083 15.30503335 -11.65234375 11.8984375 C-9.8433839 9.83900629 -7.96730043 7.90839922 -6 6 C-5.40574219 5.39414062 -4.81148438 4.78828125 -4.19921875 4.1640625 C-2.81692069 2.75867116 -1.41099355 1.37657907 0 0 Z " fill="#CA9518" transform="translate(418,480)"/>
<path d="M0 0 C1.93719378 -0.05406122 3.87481921 -0.09282025 5.8125 -0.125 C6.89144531 -0.14820313 7.97039062 -0.17140625 9.08203125 -0.1953125 C12 0 12 0 15 2 C11.85069107 3.04976964 9.61185544 3.10131595 6.3125 3.0625 C5.31863281 3.05347656 4.32476562 3.04445313 3.30078125 3.03515625 C2.16189453 3.01775391 2.16189453 3.01775391 1 3 C0.67 2.01 0.34 1.02 0 0 Z " fill="#D7CEB7" transform="translate(323,559)"/>
<path d="M0 0 C0 0.66 0 1.32 0 2 C-3.63 2 -7.26 2 -11 2 C-11 2.66 -11 3.32 -11 4 C-14.3 4 -17.6 4 -21 4 C-17.03710451 1.02782838 -16.22081112 0.60215196 -11.625 0.3125 C-10.18060547 0.21582031 -10.18060547 0.21582031 -8.70703125 0.1171875 C-5.80033011 -0.00864372 -2.90888189 -0.07861843 0 0 Z " fill="#1D1E1E" transform="translate(493,639)"/>
<path d="M0 0 C0.66 0.66 1.32 1.32 2 2 C1.69347955 4.9425963 1.32728846 7.34542308 0 10 C0.93578995 12.35981813 1.93347808 14.69631264 3 17 C0 16 0 16 -2 13 C-2.265625 10.37109375 -2.265625 10.37109375 -2.25 7.4375 C-2.25515625 6.46683594 -2.2603125 5.49617188 -2.265625 4.49609375 C-2 2 -2 2 0 0 Z " fill="#D8B254" transform="translate(404,492)"/>
<path d="M0 0 C0.66 0 1.32 0 2 0 C3.68732277 1.98260426 5.35366057 3.9832342 7 6 C7.66 6.33 8.32 6.66 9 7 C9.33 5.68 9.66 4.36 10 3 C10.33 5.97 10.66 8.94 11 12 C6.86263749 8.57871946 3.14184155 5.39857817 0 1 C0 0.67 0 0.34 0 0 Z " fill="#DCAC24" transform="translate(388,560)"/>
<path d="M0 0 C1.65 0 3.3 0 5 0 C4.7525 0.556875 4.505 1.11375 4.25 1.6875 C3.71646324 4.24050936 3.71646324 4.24050936 5.9375 6.75 C6.618125 7.4925 7.29875 8.235 8 9 C4.41087588 9 3.89142971 8.33563446 1.3125 6 C0.68988281 5.443125 0.06726563 4.88625 -0.57421875 4.3125 C-1.04472656 3.879375 -1.51523437 3.44625 -2 3 C-1.01 2.67 -0.02 2.34 1 2 C0.67 1.34 0.34 0.68 0 0 Z " fill="#D3A63B" transform="translate(294,442)"/>
<path d="M0 0 C0.66 0.66 1.32 1.32 2 2 C-0.31 6.62 -2.62 11.24 -5 16 C-6 14 -6 14 -5.546875 12.01171875 C-4.06786711 7.69794574 -2.57892387 3.80698285 0 0 Z " fill="#D8B257" transform="translate(404,429)"/>
<path d="M0 0 C1.32 0 2.64 0 4 0 C3.38545304 3.99455527 1.29353263 6.74466336 -1 10 C-2.46726798 6.18510326 -1.43336419 3.70988378 0 0 Z " fill="#D8A82E" transform="translate(444,380)"/>
<path d="M0 0 C0.66 0.33 1.32 0.66 2 1 C-0.74423966 3.94751667 -3.36219655 6.22773678 -7 8 C-7.99 7.67 -8.98 7.34 -10 7 C-6.81404865 4.36021174 -3.69029454 1.89501612 0 0 Z " fill="#D0A235" transform="translate(407,416)"/>
<path d="M0 0 C2 2 2 2 2.4375 4.25 C1.79732405 8.27396312 -0.24674453 10.04025037 -3 13 C-4.23593891 9.29218328 -3.5678132 8.32489747 -2.0625 4.8125 C-1.68222656 3.91144531 -1.30195313 3.01039063 -0.91015625 2.08203125 C-0.60980469 1.39496094 -0.30945313 0.70789063 0 0 Z " fill="#D8A731" transform="translate(369,342)"/>
<path d="M0 0 C0.33 0.66 0.66 1.32 1 2 C-0.5823006 2.33820166 -2.16589375 2.67035939 -3.75 3 C-5.07257812 3.2784375 -5.07257812 3.2784375 -6.421875 3.5625 C-9 4 -9 4 -13 4 C-13 3.34 -13 2.68 -13 2 C-8.49646738 0.24252386 -4.82360189 -0.19294408 0 0 Z " fill="#1D1E1F" transform="translate(538,623)"/>
<path d="M0 0 C3.45201639 1.47721422 5.64961936 3.43794001 8.25 6.125 C8.95640625 6.84945313 9.6628125 7.57390625 10.390625 8.3203125 C11.18726563 9.15175781 11.18726563 9.15175781 12 10 C11.67 10.66 11.34 11.32 11 12 C10.45730469 11.4225 9.91460937 10.845 9.35546875 10.25 C8.64003906 9.5075 7.92460937 8.765 7.1875 8 C6.47980469 7.2575 5.77210938 6.515 5.04296875 5.75 C3.06860631 3.67472392 3.06860631 3.67472392 0 4 C0 2.68 0 1.36 0 0 Z " fill="#E5B22C" transform="translate(301,369)"/>
<path d="M0 0 C0.66 0.66 1.32 1.32 2 2 C-1.63 5.3 -5.26 8.6 -9 12 C-9 9 -9 9 -7.03125 6.73828125 C-5.77828125 5.53751953 -5.77828125 5.53751953 -4.5 4.3125 C-3.6646875 3.50425781 -2.829375 2.69601562 -1.96875 1.86328125 C-1.3190625 1.24839844 -0.669375 0.63351562 0 0 Z " fill="#08090C" transform="translate(287,556)"/>
<path d="M0 0 C1.98 0 3.96 0 6 0 C6.33 1.65 6.66 3.3 7 5 C4.69 5 2.38 5 0 5 C0 3.35 0 1.7 0 0 Z " fill="#DACCB2" transform="translate(656,593)"/>
<path d="M0 0 C1.76462683 3.08809695 2 4.23312136 2 8 C1.34 8 0.68 8 0 8 C0.309375 9.423125 0.309375 9.423125 0.625 10.875 C0.74875 11.90625 0.8725 12.9375 1 14 C0.34 14.66 -0.32 15.32 -1 16 C-2.49697302 10.31150252 -1.3348044 5.58190932 0 0 Z " fill="#1B1A18" transform="translate(714,514)"/>
<path d="M0 0 C1.55393116 1.97773056 2.88906287 3.73850533 3.875 6.0625 C5.39818934 8.68577053 7.35787257 9.60940661 10 11 C8.68 11.33 7.36 11.66 6 12 C2.28930302 8.00386479 0.40208382 5.62917348 0 0 Z " fill="#DDBE6E" transform="translate(366,422)"/>
<path d="M0 0 C5.21979128 -0.1799928 9.07262981 0.02905192 14 2 C11.49923002 3.62433191 10.41017471 4.07333427 7.421875 3.5390625 C6.54015625 3.23742187 5.6584375 2.93578125 4.75 2.625 C3.85796875 2.32851563 2.9659375 2.03203125 2.046875 1.7265625 C1.37140625 1.48679687 0.6959375 1.24703125 0 1 C0 0.67 0 0.34 0 0 Z " fill="#DAB65D" transform="translate(405,522)"/>
<path d="M0 0 C0.33 0 0.66 0 1 0 C1.06058594 0.61488281 1.12117188 1.22976563 1.18359375 1.86328125 C1.26738281 2.67152344 1.35117187 3.47976563 1.4375 4.3125 C1.51871094 5.11300781 1.59992188 5.91351562 1.68359375 6.73828125 C1.95265693 9.16087179 1.95265693 9.16087179 3 12 C2.34 12.99 1.68 13.98 1 15 C0 14 0 14 -0.09765625 10.83984375 C-0.08025391 8.90818359 -0.08025391 8.90818359 -0.0625 6.9375 C-0.05347656 5.64714844 -0.04445313 4.35679687 -0.03515625 3.02734375 C-0.02355469 2.02832031 -0.01195312 1.02929688 0 0 Z " fill="#13181D" transform="translate(260,578)"/>
<path d="M0 0 C-5.05857527 2.72384822 -9.28978955 4.67947366 -15 3 C-15 2.67 -15 2.34 -15 2 C-13.43883181 1.66048381 -11.87598662 1.32867456 -10.3125 1 C-9.44238281 0.814375 -8.57226562 0.62875 -7.67578125 0.4375 C-5.06287036 0.01027953 -2.64186962 -0.07616201 0 0 Z " fill="#F4EED7" transform="translate(539,625)"/>
<path d="M0 0 C-3.12488567 2.52394612 -6.31314387 4.39701907 -10 6 C-10.66 5.67 -11.32 5.34 -12 5 C-4.88610478 -0.74031891 -4.88610478 -0.74031891 0 0 Z " fill="#19181A" transform="translate(683,579)"/>
<path d="M0 0 C-3.26545761 1.88391785 -6.28111761 2.49287967 -10 3 C-10 2.01 -10 1.02 -10 0 C-6.42355152 -1.2380014 -3.66305234 -0.74926071 0 0 Z " fill="#16191B" transform="translate(623,614)"/>
<path d="M0 0 C0 1.65 0 3.3 0 5 C-2.31 4.34 -4.62 3.68 -7 3 C-3.375 0 -3.375 0 0 0 Z " fill="#DFD6C4" transform="translate(657,594)"/>
<path d="M0 0 C3.625 0.375 3.625 0.375 7 1 C3.96474514 3.02350324 2.80573798 3.32124018 -0.6875 3.625 C-1.49574219 3.69976562 -2.30398438 3.77453125 -3.13671875 3.8515625 C-3.75160156 3.90054687 -4.36648438 3.94953125 -5 4 C-4.01 3.34 -3.02 2.68 -2 2 C-1.34 1.34 -0.68 0.68 0 0 Z " fill="#151A1C" transform="translate(442,489)"/>
<path d="M0 0 C0.33 0 0.66 0 1 0 C1.22151549 1.79008467 1.42682213 3.58218162 1.625 5.375 C1.74101562 6.37273438 1.85703125 7.37046875 1.9765625 8.3984375 C1.98429687 9.25695312 1.99203125 10.11546875 2 11 C1.34 11.66 0.68 12.32 0 13 C-1.29676812 8.38926889 -0.71109139 4.66159911 0 0 Z " fill="#141B1C" transform="translate(272,581)"/>
<path d="M0 0 C0.33 0 0.66 0 1 0 C1 2.64 1 5.28 1 8 C-0.32 7.67 -1.64 7.34 -3 7 C-1.125 2.25 -1.125 2.25 0 0 Z " fill="#DAB35C" transform="translate(381,533)"/>
<path d="M0 0 C2.97 0.495 2.97 0.495 6 1 C6.33 1.99 6.66 2.98 7 4 C4.69 3.67 2.38 3.34 0 3 C0 2.01 0 1.02 0 0 Z " fill="#C59724" transform="translate(429,536)"/>
<path d="M0 0 C2.475 0.495 2.475 0.495 5 1 C4.67 2.98 4.34 4.96 4 7 C2.68 6.67 1.36 6.34 0 6 C0.66 5.67 1.32 5.34 2 5 C2 4.01 2 3.02 2 2 C1.34 1.34 0.68 0.68 0 0 Z " fill="#D5C7AE" transform="translate(491,472)"/>
<path d="M0 0 C0.66 0 1.32 0 2 0 C3.625 2.5 3.625 2.5 5 5 C2.69 4.67 0.38 4.34 -2 4 C-1.34 2.68 -0.68 1.36 0 0 Z " fill="#DDB967" transform="translate(420,523)"/>
<path d="M0 0 C0 0.33 0 0.66 0 1 C-7.38461538 3.21538462 -7.38461538 3.21538462 -10.5 2.125 C-10.995 1.75375 -11.49 1.3825 -12 1 C-8.0186217 -0.3271261 -4.14954773 -0.06915913 0 0 Z " fill="#E4DBC8" transform="translate(338,442)"/>
<path d="M0 0 C0.66 0.33 1.32 0.66 2 1 C1.67 2.98 1.34 4.96 1 7 C0.34 7 -0.32 7 -1 7 C-1.33 7.66 -1.66 8.32 -2 9 C-1.34 6.03 -0.68 3.06 0 0 Z " fill="#D9B45C" transform="translate(356,396)"/>
</svg>
