<?xml version="1.0" encoding="UTF-8"?>
<svg version="1.1" xmlns="http://www.w3.org/2000/svg" width="1024" height="1024">
<path d="M0 0 C0.99 0.33 1.98 0.66 3 1 C4.6399611 10.14087618 5.32096624 19.03669914 5.5 28.3125 C5.215599 47.35117292 5.215599 47.35117292 11 65 C15.75666669 68.5367457 22.41366082 67.57183 28 67 C40.18248536 63.97549947 51.43214551 55.34908563 61.97558594 48.76660156 C63.6025958 47.75118192 65.23841265 46.74990998 66.875 45.75 C67.73867188 45.20859375 68.60234375 44.6671875 69.4921875 44.109375 C72.48576965 42.78511125 74.76116084 42.79226105 78 43 C77.52497329 48.13707451 76.49709849 51.44120344 73.6484375 55.73046875 C72.96136719 56.78169922 72.27429688 57.83292969 71.56640625 58.91601562 C70.84324219 59.99560547 70.12007812 61.07519531 69.375 62.1875 C56.55119107 79.95017022 56.55119107 79.95017022 51.625 100.5625 C51.60050781 101.31724609 51.57601562 102.07199219 51.55078125 102.84960938 C51.53329219 106.15795707 51.77429098 108.58833753 53.375 111.5078125 C57.56373799 113.88891058 61.64896342 113.45829441 66.375 113.3125 C67.36508057 113.29703125 68.35516113 113.2815625 69.37524414 113.265625 C75.8309292 113.13936272 82.23862178 112.77043656 88.671875 112.2265625 C104.45614035 111.15204678 104.45614035 111.15204678 110 113 C109.92216384 115.64642943 109.53990936 117.42967038 107.69140625 119.38232422 C103.03817985 123.29538672 98.16174027 126.69517593 93.0625 130 C87.21460609 133.80931512 81.53231814 137.74248346 76 142 C80.3017882 141.34827251 84.60265573 140.69082389 88.90283203 140.02856445 C90.35898447 139.80507017 91.81535823 139.58301208 93.27197266 139.36254883 C101.94515942 138.0487017 110.49530202 136.55661504 119.04248047 134.56176758 C121.79738158 134.03848646 124.20636735 133.81248047 127 134 C127.33 134.33 127.66 134.66 128 135 C127.53384684 142.225374 127.53384684 142.225374 125.96557617 144.50097656 C122.98060905 146.77742646 119.60995896 147.26367703 116.00390625 147.9921875 C115.20811661 148.16056122 114.41232697 148.32893494 113.59242249 148.50241089 C104.75551628 150.33104203 95.85356934 151.74657368 86.9375 153.125 C73.34885142 155.00611938 73.34885142 155.00611938 60 158 C56.62587457 163.06118815 56.89578998 168.12761036 58 174 C60.36200513 178.43894067 63.27492088 182.21186894 66.45019531 186.09521484 C68.68957971 188.84752692 70.84777061 191.65867945 72.99511719 194.4831543 C74.06446182 195.88839104 75.14553228 197.28479749 76.23925781 198.67114258 C76.73006836 199.30818115 77.22087891 199.94521973 77.7265625 200.6015625 C78.16564941 201.16182129 78.60473633 201.72208008 79.05712891 202.29931641 C80 204 80 204 80 208 C72.11991809 208.5486133 64.96064275 206.50329879 57.375 204.5625 C54.80036227 203.91437735 52.22444544 203.27158313 49.6484375 202.62890625 C48.51583496 202.34088135 47.38323242 202.05285645 46.21630859 201.75610352 C36.51553254 199.31587295 36.51553254 199.31587295 27 201 C26.68007386 210.78736996 26.90401248 219.52882902 29.44140625 229.046875 C30.01733196 232.09162912 29.82731993 234.04137245 29 237 C24.88262323 236.47941213 23.00997586 234.34887273 20.1875 231.4375 C19.30964844 230.53515625 18.43179688 229.6328125 17.52734375 228.703125 C15.37866904 226.40500615 13.29664858 224.07601638 11.25 221.6875 C8.37688375 218.36144542 5.6315908 215.50176255 2 213 C-1.3410731 213.35456286 -3.5026206 214.88075617 -6.1875 216.8125 C-13.52596724 221.77188351 -20.52903672 224.28843506 -29.125 226.25 C-29.8893335 226.42547363 -30.65366699 226.60094727 -31.44116211 226.78173828 C-39.23940341 228.45574611 -46.02220502 228.06006165 -53.75 226.3125 C-54.53987305 226.13823486 -55.32974609 225.96396973 -56.14355469 225.78442383 C-61.70809652 224.48432382 -66.62752249 222.64871704 -71.640625 219.85546875 C-74.86556287 218.68616181 -76.72585211 219.03302368 -80 220 C-86.87925764 224.79240967 -94.29252131 231.87756393 -97 240 C-98.01155444 252.26238319 -98.01155444 252.26238319 -93 263 C-92.64550781 263.53109375 -92.29101562 264.0621875 -91.92578125 264.609375 C-77.26142226 284.77865109 -46.646421 288.84616854 -24 292.6875 C-22.81543213 292.88988281 -21.63086426 293.09226562 -20.41040039 293.30078125 C-16.61333513 293.91915382 -12.81200795 294.48340724 -9 295 C-8.30372498 295.09502808 -7.60744995 295.19005615 -6.89007568 295.28796387 C9.31074776 297.40771461 25.56403891 297.39780047 41.875 297.375 C42.5854459 297.3749081 43.2958918 297.37481621 44.02786636 297.37472153 C69.33643244 297.3705007 94.33895025 296.22008572 119.49291992 293.28778076 C121.9491398 293.0058381 124.40655491 292.74049536 126.86523438 292.48095703 C146.3967647 290.40569989 165.53941168 287.08971163 184.75 283 C185.73410858 282.79066833 186.71821716 282.58133667 187.73214722 282.36566162 C198.29844734 280.09865875 208.7807898 277.69447852 219.11785889 274.5234375 C223.55192382 273.20952275 227.39390894 272.88282506 232 273 C234.43752154 272.41415791 236.85662848 271.74598593 239.25 271 C245.72222222 269 245.72222222 269 249 269 C249 268.01 249 267.02 249 266 C248.175 266.30035156 247.35 266.60070312 246.5 266.91015625 C226.42948238 273.51819498 206.02665744 267.51176652 187.57861328 258.50537109 C163.04727069 246.00090821 144.31811352 223.92499197 135.5625 197.875 C126.36191714 168.67848372 128.6302808 139.39336994 142.8125 112.125 C146.58277513 105.13873956 150.5369801 98.80502114 156 93 C156.52190918 92.4332959 157.04381836 91.8665918 157.58154297 91.28271484 C165.87360202 82.34129154 174.24109491 74.80242168 185 69 C185.88075195 68.52143555 185.88075195 68.52143555 186.77929688 68.03320312 C213.11429477 54.05077753 243.34934662 51.34625729 271.80688477 59.89916992 C286.40404692 64.59636259 299.72447866 71.51663038 311 82 C311.48807129 82.44182617 311.97614258 82.88365234 312.47900391 83.33886719 C333.51923993 102.50515509 345.19651288 130.2302316 347.25 158.43359375 C347.65629384 179.17997287 342.04298303 198.05865513 332 216 C331.44441406 216.99773437 330.88882812 217.99546875 330.31640625 219.0234375 C323.2795046 230.80223211 314.58340183 240.2637462 302 246 C301.34 246 300.68 246 300 246 C300 246.99 300 247.98 300 249 C300.77085937 248.566875 301.54171875 248.13375 302.3359375 247.6875 C303.33882812 247.130625 304.34171875 246.57375 305.375 246 C306.37273437 245.443125 307.37046875 244.88625 308.3984375 244.3125 C311 243 311 243 313 243 C313.33 242.01 313.66 241.02 314 240 C316.10853126 238.76647883 318.18164429 237.68610314 320.375 236.625 C338.11243971 227.57325247 361.34586363 213.96240911 368 194 C368.64247598 186.20602908 368.78814843 180.34106143 364 174 C363.2575 172.989375 362.515 171.97875 361.75 170.9375 C359.68207797 168.48184259 357.43368548 166.93189556 354.75 165.1875 C352.35550111 163.4752074 351.19826127 162.55147431 350.1953125 159.76171875 C349.61843249 155.46325919 349.81200453 152.80745668 352 149 C363.63925172 154.42817121 374.31182448 164.71854661 379.16015625 176.5546875 C382.82503362 187.22544672 380.88782512 195.95280392 376 206 C374.24584444 208.92528254 372.24344132 211.43680382 370 214 C369.38769531 214.75410156 368.77539062 215.50820313 368.14453125 216.28515625 C336.82119039 253.36776054 280.27491608 269.8335509 235 283 C233.80181641 283.3501416 232.60363281 283.7002832 231.36914062 284.06103516 C209.26904689 290.43324917 186.8020211 295.1230516 164.2456665 299.55731201 C162.30649477 299.93958072 160.36868809 300.32876213 158.43115234 300.71923828 C141.0185357 304.17015874 123.31893795 305.27744712 105.64404297 306.60668945 C104.11284065 306.72225189 104.11284065 306.72225189 102.55070496 306.84014893 C100.51766859 306.99353345 98.48455658 307.14591868 96.45137024 307.29730225 C90.8440045 307.72893762 85.30854952 308.32772032 79.73828125 309.09765625 C68.84880327 310.52018237 57.86522608 310.33515847 46.90258789 310.31567383 C43.23227509 310.31253825 39.56279054 310.33596537 35.89257812 310.36132812 C-7.21516991 310.47719219 -65.64424997 306.37346913 -98.625 274.875 C-105.86032591 267.42723792 -110.79394758 257.50867366 -111 247 C-109.31427048 233.61737181 -102.24415534 222.72192556 -91.86328125 214.2578125 C-90.27834834 213.11974709 -88.64471495 212.04981805 -87 211 C-88.3932248 207.93353953 -90.07090044 205.61950647 -92.25 203.0625 C-100.3454965 192.75760758 -105.5837756 179.33955685 -105 166.125 C-102.84470956 148.60457452 -94.35268027 134.85461318 -81.7265625 122.8359375 C-79.77164181 121.17721816 -79.77164181 121.17721816 -80 119 C-81.94018414 117.28427457 -83.8855801 115.69838611 -85.9375 114.125 C-86.55343018 113.64538818 -87.16936035 113.16577637 -87.80395508 112.67163086 C-93.52462763 108.26382952 -99.42495596 104.11569937 -105.40014648 100.06103516 C-108.85721624 97.68113008 -111.76471474 95.65067825 -114 92 C-112.3003182 90.3003182 -110.20910817 90.82773569 -107.875 90.8125 C-100.37337144 90.85399131 -92.94902445 91.5432164 -85.48779297 92.28833008 C-79.01137829 92.91369669 -72.50707716 93.41075075 -66 93 C-65.67 92.67 -65.34 92.34 -65 92 C-65.05207104 79.51200684 -67.45071628 67.2015954 -69.56689453 54.93945312 C-69.99361811 52.45062959 -70.40753851 49.95991918 -70.8203125 47.46875 C-70.95357941 46.7207312 -71.08684631 45.9727124 -71.22415161 45.20202637 C-71.99618488 40.50375692 -71.9040496 36.6810534 -71 32 C-65.75310269 32.31648145 -63.12085557 35.37697963 -59.67578125 38.96875 C-58.79456856 39.86200989 -58.79456856 39.86200989 -57.89555359 40.77331543 C-56.02484175 42.67297641 -54.16829959 44.58577842 -52.3125 46.5 C-50.44344825 48.41154657 -48.57158986 50.32026296 -46.6973114 52.22668457 C-45.53288259 53.41282751 -44.37196919 54.60243367 -43.21492004 55.79577637 C-39.1729414 59.9953794 -39.1729414 59.9953794 -33.6875 61.375 C-29.869683 60.98674742 -28.80234253 60.44516346 -26.26098633 57.70898438 C-23.65544055 54.17775098 -22.1546111 50.10047289 -20.5 46.0625 C-19.63581093 44.01676049 -18.77120484 41.97119711 -17.90625 39.92578125 C-17.44476563 38.82314941 -16.98328125 37.72051758 -16.5078125 36.58447266 C-14.00302553 30.62992565 -11.43982837 24.70078148 -8.8737793 18.77243042 C-8.00938357 16.77171901 -7.14986301 14.76896751 -6.29101562 12.76586914 C-5.75665744 11.52614104 -5.22215895 10.28647341 -4.6875 9.046875 C-3.98173828 7.40477051 -3.98173828 7.40477051 -3.26171875 5.72949219 C-2 3 -2 3 0 0 Z " fill="#CD9B24" transform="translate(371,336)"/>
<path d="M0 0 C0.99 0.33 1.98 0.66 3 1 C4.6399611 10.14087618 5.32096624 19.03669914 5.5 28.3125 C5.215599 47.35117292 5.215599 47.35117292 11 65 C15.75666669 68.5367457 22.41366082 67.57183 28 67 C40.18248536 63.97549947 51.43214551 55.34908563 61.97558594 48.76660156 C63.6025958 47.75118192 65.23841265 46.74990998 66.875 45.75 C67.73867188 45.20859375 68.60234375 44.6671875 69.4921875 44.109375 C72.48576965 42.78511125 74.76116084 42.79226105 78 43 C77.52497329 48.13707451 76.49709849 51.44120344 73.6484375 55.73046875 C72.96136719 56.78169922 72.27429688 57.83292969 71.56640625 58.91601562 C70.84324219 59.99560547 70.12007812 61.07519531 69.375 62.1875 C56.55119107 79.95017022 56.55119107 79.95017022 51.625 100.5625 C51.60050781 101.31724609 51.57601562 102.07199219 51.55078125 102.84960938 C51.53329219 106.15795707 51.77429098 108.58833753 53.375 111.5078125 C57.56373799 113.88891058 61.64896342 113.45829441 66.375 113.3125 C67.36508057 113.29703125 68.35516113 113.2815625 69.37524414 113.265625 C75.8309292 113.13936272 82.23862178 112.77043656 88.671875 112.2265625 C104.45614035 111.15204678 104.45614035 111.15204678 110 113 C109.92216384 115.64642943 109.53990936 117.42967038 107.69140625 119.38232422 C103.03817985 123.29538672 98.16174027 126.69517593 93.0625 130 C87.21460609 133.80931512 81.53231814 137.74248346 76 142 C80.3017882 141.34827251 84.60265573 140.69082389 88.90283203 140.02856445 C90.35898447 139.80507017 91.81535823 139.58301208 93.27197266 139.36254883 C101.94515942 138.0487017 110.49530202 136.55661504 119.04248047 134.56176758 C121.79738158 134.03848646 124.20636735 133.81248047 127 134 C127.33 134.33 127.66 134.66 128 135 C127.53384684 142.225374 127.53384684 142.225374 125.96557617 144.50097656 C122.98060905 146.77742646 119.60995896 147.26367703 116.00390625 147.9921875 C115.20811661 148.16056122 114.41232697 148.32893494 113.59242249 148.50241089 C104.75551628 150.33104203 95.85356934 151.74657368 86.9375 153.125 C73.34885142 155.00611938 73.34885142 155.00611938 60 158 C56.62587457 163.06118815 56.89578998 168.12761036 58 174 C60.36200513 178.43894067 63.27492088 182.21186894 66.45019531 186.09521484 C68.68957971 188.84752692 70.84777061 191.65867945 72.99511719 194.4831543 C74.06446182 195.88839104 75.14553228 197.28479749 76.23925781 198.67114258 C76.73006836 199.30818115 77.22087891 199.94521973 77.7265625 200.6015625 C78.16564941 201.16182129 78.60473633 201.72208008 79.05712891 202.29931641 C80 204 80 204 80 208 C72.11991809 208.5486133 64.96064275 206.50329879 57.375 204.5625 C54.80036227 203.91437735 52.22444544 203.27158313 49.6484375 202.62890625 C48.51583496 202.34088135 47.38323242 202.05285645 46.21630859 201.75610352 C36.51553254 199.31587295 36.51553254 199.31587295 27 201 C26.68007386 210.78736996 26.90401248 219.52882902 29.44140625 229.046875 C30.01733196 232.09162912 29.82731993 234.04137245 29 237 C24.88262323 236.47941213 23.00997586 234.34887273 20.1875 231.4375 C19.30964844 230.53515625 18.43179688 229.6328125 17.52734375 228.703125 C15.37866904 226.40500615 13.29664858 224.07601638 11.25 221.6875 C8.37688375 218.36144542 5.6315908 215.50176255 2 213 C-1.3410731 213.35456286 -3.5026206 214.88075617 -6.1875 216.8125 C-13.52596724 221.77188351 -20.52903672 224.28843506 -29.125 226.25 C-29.8893335 226.42547363 -30.65366699 226.60094727 -31.44116211 226.78173828 C-39.23940341 228.45574611 -46.02220502 228.06006165 -53.75 226.3125 C-54.53987305 226.13823486 -55.32974609 225.96396973 -56.14355469 225.78442383 C-61.70809652 224.48432382 -66.62752249 222.64871704 -71.640625 219.85546875 C-74.86556287 218.68616181 -76.72585211 219.03302368 -80 220 C-86.87925764 224.79240967 -94.29252131 231.87756393 -97 240 C-98.01155444 252.26238319 -98.01155444 252.26238319 -93 263 C-92.64550781 263.53109375 -92.29101562 264.0621875 -91.92578125 264.609375 C-77.26142226 284.77865109 -46.646421 288.84616854 -24 292.6875 C-22.81543213 292.88988281 -21.63086426 293.09226562 -20.41040039 293.30078125 C-16.61333513 293.91915382 -12.81200795 294.48340724 -9 295 C-8.30372498 295.09502808 -7.60744995 295.19005615 -6.89007568 295.28796387 C9.31074776 297.40771461 25.56403891 297.39780047 41.875 297.375 C42.5854459 297.3749081 43.2958918 297.37481621 44.02786636 297.37472153 C69.33643244 297.3705007 94.33895025 296.22008572 119.49291992 293.28778076 C121.9491398 293.0058381 124.40655491 292.74049536 126.86523438 292.48095703 C146.3967647 290.40569989 165.53941168 287.08971163 184.75 283 C185.73410858 282.79066833 186.71821716 282.58133667 187.73214722 282.36566162 C198.29844734 280.09865875 208.7807898 277.69447852 219.11785889 274.5234375 C223.55765598 273.20782418 227.39114258 272.91106554 232 273 C234.43513961 272.55947535 234.43513961 272.55947535 236.6796875 271.828125 C237.51757812 271.57796631 238.35546875 271.32780762 239.21875 271.07006836 C240.0953125 270.7994458 240.971875 270.52882324 241.875 270.25 C248.54870612 268.25501519 255.19669534 266.4309657 262 264.9375 C277.11461724 261.50299659 290.02020409 254.52553672 303.45703125 247.0859375 C304.44058594 246.54195312 305.42414063 245.99796875 306.4375 245.4375 C307.28183594 244.96183594 308.12617187 244.48617187 308.99609375 243.99609375 C311 243 311 243 313 243 C313.33 242.01 313.66 241.02 314 240 C316.10853126 238.76647883 318.18164429 237.68610314 320.375 236.625 C338.11243971 227.57325247 361.34586363 213.96240911 368 194 C368.64247598 186.20602908 368.78814843 180.34106143 364 174 C363.2575 172.989375 362.515 171.97875 361.75 170.9375 C359.68207797 168.48184259 357.43368548 166.93189556 354.75 165.1875 C352.35550111 163.4752074 351.19826127 162.55147431 350.1953125 159.76171875 C349.61843249 155.46325919 349.81200453 152.80745668 352 149 C363.63925172 154.42817121 374.31182448 164.71854661 379.16015625 176.5546875 C382.82503362 187.22544672 380.88782512 195.95280392 376 206 C374.24584444 208.92528254 372.24344132 211.43680382 370 214 C369.38769531 214.75410156 368.77539062 215.50820313 368.14453125 216.28515625 C336.82119039 253.36776054 280.27491608 269.8335509 235 283 C233.80181641 283.3501416 232.60363281 283.7002832 231.36914062 284.06103516 C209.26904689 290.43324917 186.8020211 295.1230516 164.2456665 299.55731201 C162.30649477 299.93958072 160.36868809 300.32876213 158.43115234 300.71923828 C141.0185357 304.17015874 123.31893795 305.27744712 105.64404297 306.60668945 C104.11284065 306.72225189 104.11284065 306.72225189 102.55070496 306.84014893 C100.51766859 306.99353345 98.48455658 307.14591868 96.45137024 307.29730225 C90.8440045 307.72893762 85.30854952 308.32772032 79.73828125 309.09765625 C68.84880327 310.52018237 57.86522608 310.33515847 46.90258789 310.31567383 C43.23227509 310.31253825 39.56279054 310.33596537 35.89257812 310.36132812 C-7.21516991 310.47719219 -65.64424997 306.37346913 -98.625 274.875 C-105.86032591 267.42723792 -110.79394758 257.50867366 -111 247 C-109.31427048 233.61737181 -102.24415534 222.72192556 -91.86328125 214.2578125 C-90.27834834 213.11974709 -88.64471495 212.04981805 -87 211 C-88.3932248 207.93353953 -90.07090044 205.61950647 -92.25 203.0625 C-100.3454965 192.75760758 -105.5837756 179.33955685 -105 166.125 C-102.84470956 148.60457452 -94.35268027 134.85461318 -81.7265625 122.8359375 C-79.77164181 121.17721816 -79.77164181 121.17721816 -80 119 C-81.94018414 117.28427457 -83.8855801 115.69838611 -85.9375 114.125 C-86.55343018 113.64538818 -87.16936035 113.16577637 -87.80395508 112.67163086 C-93.52462763 108.26382952 -99.42495596 104.11569937 -105.40014648 100.06103516 C-108.85721624 97.68113008 -111.76471474 95.65067825 -114 92 C-112.3003182 90.3003182 -110.20910817 90.82773569 -107.875 90.8125 C-100.37337144 90.85399131 -92.94902445 91.5432164 -85.48779297 92.28833008 C-79.01137829 92.91369669 -72.50707716 93.41075075 -66 93 C-65.67 92.67 -65.34 92.34 -65 92 C-65.05207104 79.51200684 -67.45071628 67.2015954 -69.56689453 54.93945312 C-69.99361811 52.45062959 -70.40753851 49.95991918 -70.8203125 47.46875 C-70.95357941 46.7207312 -71.08684631 45.9727124 -71.22415161 45.20202637 C-71.99618488 40.50375692 -71.9040496 36.6810534 -71 32 C-65.75310269 32.31648145 -63.12085557 35.37697963 -59.67578125 38.96875 C-58.79456856 39.86200989 -58.79456856 39.86200989 -57.89555359 40.77331543 C-56.02484175 42.67297641 -54.16829959 44.58577842 -52.3125 46.5 C-50.44344825 48.41154657 -48.57158986 50.32026296 -46.6973114 52.22668457 C-45.53288259 53.41282751 -44.37196919 54.60243367 -43.21492004 55.79577637 C-39.1729414 59.9953794 -39.1729414 59.9953794 -33.6875 61.375 C-29.869683 60.98674742 -28.80234253 60.44516346 -26.26098633 57.70898438 C-23.65544055 54.17775098 -22.1546111 50.10047289 -20.5 46.0625 C-19.63581093 44.01676049 -18.77120484 41.97119711 -17.90625 39.92578125 C-17.44476563 38.82314941 -16.98328125 37.72051758 -16.5078125 36.58447266 C-14.00302553 30.62992565 -11.43982837 24.70078148 -8.8737793 18.77243042 C-8.00938357 16.77171901 -7.14986301 14.76896751 -6.29101562 12.76586914 C-5.75665744 11.52614104 -5.22215895 10.28647341 -4.6875 9.046875 C-3.98173828 7.40477051 -3.98173828 7.40477051 -3.26171875 5.72949219 C-2 3 -2 3 0 0 Z " fill="#E1D4B7" transform="translate(371,336)"/>
<path d="M0 0 C0.99 0.33 1.98 0.66 3 1 C4.6399611 10.14087618 5.32096624 19.03669914 5.5 28.3125 C5.215599 47.35117292 5.215599 47.35117292 11 65 C15.75666669 68.5367457 22.41366082 67.57183 28 67 C40.18248536 63.97549947 51.43214551 55.34908563 61.97558594 48.76660156 C63.6025958 47.75118192 65.23841265 46.74990998 66.875 45.75 C67.73867188 45.20859375 68.60234375 44.6671875 69.4921875 44.109375 C72.48576965 42.78511125 74.76116084 42.79226105 78 43 C77.52497329 48.13707451 76.49709849 51.44120344 73.6484375 55.73046875 C72.96136719 56.78169922 72.27429688 57.83292969 71.56640625 58.91601562 C70.84324219 59.99560547 70.12007812 61.07519531 69.375 62.1875 C56.55119107 79.95017022 56.55119107 79.95017022 51.625 100.5625 C51.60050781 101.31724609 51.57601562 102.07199219 51.55078125 102.84960938 C51.53329219 106.15795707 51.77429098 108.58833753 53.375 111.5078125 C57.56373799 113.88891058 61.64896342 113.45829441 66.375 113.3125 C67.36508057 113.29703125 68.35516113 113.2815625 69.37524414 113.265625 C75.8309292 113.13936272 82.23862178 112.77043656 88.671875 112.2265625 C104.45614035 111.15204678 104.45614035 111.15204678 110 113 C109.92216384 115.64642943 109.53990936 117.42967038 107.69140625 119.38232422 C103.03817985 123.29538672 98.16174027 126.69517593 93.0625 130 C87.21460609 133.80931512 81.53231814 137.74248346 76 142 C80.3017882 141.34827251 84.60265573 140.69082389 88.90283203 140.02856445 C90.35898447 139.80507017 91.81535823 139.58301208 93.27197266 139.36254883 C101.94515942 138.0487017 110.49530202 136.55661504 119.04248047 134.56176758 C121.79738158 134.03848646 124.20636735 133.81248047 127 134 C127.33 134.33 127.66 134.66 128 135 C127.53384684 142.225374 127.53384684 142.225374 125.96557617 144.50097656 C122.98060905 146.77742646 119.60995896 147.26367703 116.00390625 147.9921875 C115.20811661 148.16056122 114.41232697 148.32893494 113.59242249 148.50241089 C104.75551628 150.33104203 95.85356934 151.74657368 86.9375 153.125 C73.34885142 155.00611938 73.34885142 155.00611938 60 158 C56.62587457 163.06118815 56.89578998 168.12761036 58 174 C60.36200513 178.43894067 63.27492088 182.21186894 66.45019531 186.09521484 C68.68957971 188.84752692 70.84777061 191.65867945 72.99511719 194.4831543 C74.06446182 195.88839104 75.14553228 197.28479749 76.23925781 198.67114258 C76.73006836 199.30818115 77.22087891 199.94521973 77.7265625 200.6015625 C78.16564941 201.16182129 78.60473633 201.72208008 79.05712891 202.29931641 C80 204 80 204 80 208 C72.11991809 208.5486133 64.96064275 206.50329879 57.375 204.5625 C54.80036227 203.91437735 52.22444544 203.27158313 49.6484375 202.62890625 C48.51583496 202.34088135 47.38323242 202.05285645 46.21630859 201.75610352 C36.51553254 199.31587295 36.51553254 199.31587295 27 201 C26.68007386 210.78736996 26.90401248 219.52882902 29.44140625 229.046875 C30.01733196 232.09162912 29.82731993 234.04137245 29 237 C24.88262323 236.47941213 23.00997586 234.34887273 20.1875 231.4375 C19.30964844 230.53515625 18.43179688 229.6328125 17.52734375 228.703125 C14.7996199 225.78568311 12.19135277 222.78648495 9.59375 219.75390625 C6.45166303 216.29607035 2.88527511 213.59018341 -1 211 C-0.55269531 210.50371094 -0.10539062 210.00742187 0.35546875 209.49609375 C8.40943393 200.44611582 12.79315108 192.2327203 17 181 C22.34275792 180.7918406 26.78570212 181.45683597 31.875 182.875 C32.55046875 183.04902344 33.2259375 183.22304688 33.921875 183.40234375 C35.63456693 183.86662771 37.32078978 184.42630474 39 185 C39.33 185.66 39.66 186.32 40 187 C38.68 187 37.36 187 36 187 C41.61 188.32 47.22 189.64 53 191 C51.35 189.2675 49.7 187.535 48 185.75 C33.78551406 170.35609991 33.78551406 170.35609991 33.0625 162.25 C33.67625048 156.71634645 37.08960221 153.66079793 41 150 C41.48259277 149.53658203 41.96518555 149.07316406 42.46240234 148.59570312 C48.53170814 142.76826957 54.70969644 137.20882364 61.48828125 132.20703125 C61.98714844 131.80871094 62.48601562 131.41039062 63 131 C63 130.67 63 130.34 63 130 C62.18321777 130.04600342 61.36643555 130.09200684 60.52490234 130.1394043 C56.80895672 130.33910406 53.09223588 130.51354069 49.375 130.6875 C48.08980469 130.76033203 46.80460938 130.83316406 45.48046875 130.90820312 C44.23652344 130.96298828 42.99257813 131.01777344 41.7109375 131.07421875 C40.56931152 131.13182373 39.42768555 131.18942871 38.25146484 131.2487793 C33.62822576 130.89504145 30.30078724 129.38750639 27.125 126 C25.39897578 121.39726875 25.77015925 116.86070615 26 112 C24.81945064 118.27255745 24.57175049 122.4705653 28 128 C33.48388923 131.83072327 38.96485458 131.34878753 45.375 131.1875 C46.39722656 131.17396484 47.41945313 131.16042969 48.47265625 131.14648438 C50.98232049 131.11130217 53.4908809 131.06207539 56 131 C51.42677316 133.61011097 47.27760629 133.36756478 42.125 133.375 C41.23941406 133.39949219 40.35382813 133.42398438 39.44140625 133.44921875 C33.78541155 133.47450636 30.44656326 132.83830697 26 129 C22.64759875 124.19489155 22.18325079 119.67135969 23 114 C25.14589083 106.50756762 29.16033502 99.73221259 33 93 C33.66 93 34.32 93 35 93 C36.98 89.04 38.96 85.08 41 81 C39.14375 82.134375 37.2875 83.26875 35.375 84.4375 C32.13895308 86.41508423 29.69253167 87.88605027 25.9375 88.50390625 C22.40919902 89.09977623 20.51969075 90.42872568 17.625 92.5 C12.82915224 95.66682338 9.76822438 97.19890429 4 97 C1.03462985 96.05647313 -0.29969674 95.02572299 -2.05078125 92.4609375 C-6.98227302 82.9026021 -8.75089643 70.50225917 -9.625 59.875 C-9.74875 58.59625 -9.8725 57.3175 -10 56 C-10.66 55.67 -11.32 55.34 -12 55 C-12.24645264 55.75095947 -12.49290527 56.50191895 -12.74682617 57.27563477 C-13.88133787 60.70882338 -15.03422426 64.13557131 -16.1875 67.5625 C-16.76854492 69.33463867 -16.76854492 69.33463867 -17.36132812 71.14257812 C-19.52686418 77.53180433 -21.57859475 82.8588311 -26 88 C-28.4375 89.1875 -28.4375 89.1875 -31 89 C-35.63763498 86.58036436 -38.87608787 83.23214292 -42.38671875 79.390625 C-44.02373571 77.67354833 -44.02373571 77.67354833 -47 78 C-48.38671875 76.5390625 -48.38671875 76.5390625 -49.6875 74.625 C-50.34298828 73.68527344 -50.34298828 73.68527344 -51.01171875 72.7265625 C-52 71 -52 71 -52 69 C-52.66 69 -53.32 69 -54 69 C-54.495 70.485 -54.495 70.485 -55 72 C-55.66 70.02 -56.32 68.04 -57 66 C-56.88406494 66.5983667 -56.76812988 67.1967334 -56.64868164 67.81323242 C-50.71963405 98.66739161 -50.71963405 98.66739161 -54 107 C-55 108 -55 108 -57.2578125 108.1328125 C-62.61386478 108.11821835 -67.72384647 107.93798285 -73 107 C-72.36490362 111.28690057 -71.08682517 112.14146853 -68 116 C-73.445 119.465 -73.445 119.465 -79 123 C-79.33 121.68 -79.66 120.36 -80 119 C-81.961843 117.18170649 -83.8696675 115.59637394 -86 114 C-86.61141846 113.52941162 -87.22283691 113.05882324 -87.8527832 112.57397461 C-93.56888795 108.21901775 -99.45511465 104.09577832 -105.40039062 100.06054688 C-108.85759362 97.68108228 -111.7648024 95.65053507 -114 92 C-112.3003182 90.3003182 -110.20910817 90.82773569 -107.875 90.8125 C-100.37337144 90.85399131 -92.94902445 91.5432164 -85.48779297 92.28833008 C-79.01137829 92.91369669 -72.50707716 93.41075075 -66 93 C-65.67 92.67 -65.34 92.34 -65 92 C-65.05207104 79.51200684 -67.45071628 67.2015954 -69.56689453 54.93945312 C-69.99361811 52.45062959 -70.40753851 49.95991918 -70.8203125 47.46875 C-70.95357941 46.7207312 -71.08684631 45.9727124 -71.22415161 45.20202637 C-71.99618488 40.50375692 -71.9040496 36.6810534 -71 32 C-65.75310269 32.31648145 -63.12085557 35.37697963 -59.67578125 38.96875 C-58.79456856 39.86200989 -58.79456856 39.86200989 -57.89555359 40.77331543 C-56.02484175 42.67297641 -54.16829959 44.58577842 -52.3125 46.5 C-50.44344825 48.41154657 -48.57158986 50.32026296 -46.6973114 52.22668457 C-45.53288259 53.41282751 -44.37196919 54.60243367 -43.21492004 55.79577637 C-39.1729414 59.9953794 -39.1729414 59.9953794 -33.6875 61.375 C-29.869683 60.98674742 -28.80234253 60.44516346 -26.26098633 57.70898438 C-23.65544055 54.17775098 -22.1546111 50.10047289 -20.5 46.0625 C-19.63581093 44.01676049 -18.77120484 41.97119711 -17.90625 39.92578125 C-17.44476563 38.82314941 -16.98328125 37.72051758 -16.5078125 36.58447266 C-14.00302553 30.62992565 -11.43982837 24.70078148 -8.8737793 18.77243042 C-8.00938357 16.77171901 -7.14986301 14.76896751 -6.29101562 12.76586914 C-5.75665744 11.52614104 -5.22215895 10.28647341 -4.6875 9.046875 C-3.98173828 7.40477051 -3.98173828 7.40477051 -3.26171875 5.72949219 C-2 3 -2 3 0 0 Z " fill="#CC9B28" transform="translate(371,336)"/>
<path d="M0 0 C11.63925172 5.42817121 22.31182448 15.71854661 27.16015625 27.5546875 C30.82503362 38.22544672 28.88782512 46.95280392 24 57 C22.24584444 59.92528254 20.24344132 62.43680382 18 65 C17.08154297 66.13115234 17.08154297 66.13115234 16.14453125 67.28515625 C-15.17880961 104.36776054 -71.72508392 120.8335509 -117 134 C-118.19818359 134.3501416 -119.39636719 134.7002832 -120.63085938 135.06103516 C-142.73095311 141.43324917 -165.1979789 146.1230516 -187.7543335 150.55731201 C-189.69350523 150.93958072 -191.63131191 151.32876213 -193.56884766 151.71923828 C-210.9814643 155.17015874 -228.68106205 156.27744712 -246.35595703 157.60668945 C-247.88715935 157.72225189 -247.88715935 157.72225189 -249.44929504 157.84014893 C-251.48233141 157.99353345 -253.51544342 158.14591868 -255.54862976 158.29730225 C-261.1559955 158.72893762 -266.69145048 159.32772032 -272.26171875 160.09765625 C-283.15119673 161.52018237 -294.13477392 161.33515847 -305.09741211 161.31567383 C-308.76772491 161.31253825 -312.43720946 161.33596537 -316.10742188 161.36132812 C-353.25385617 161.4611695 -398.22515302 158.28966844 -431 139 C-430.67 137.35 -430.34 135.7 -430 134 C-424.375 133.75 -424.375 133.75 -421 136 C-420.51660156 135.6184375 -420.03320312 135.236875 -419.53515625 134.84375 C-415.56079509 133.52100422 -412.25888479 135.21770078 -408.4375 136.5 C-398.55533716 139.56481736 -388.61839577 141.52096384 -378.4375 143.25 C-377.36518631 143.43622925 -377.36518631 143.43622925 -376.27120972 143.6262207 C-354.22192475 147.43336419 -332.48194901 148.40625192 -310.125 148.375 C-309.4145541 148.3749081 -308.7041082 148.37481621 -307.97213364 148.37472153 C-282.66356756 148.3705007 -257.66104975 147.22008572 -232.50708008 144.28778076 C-230.0508602 144.0058381 -227.59344509 143.74049536 -225.13476562 143.48095703 C-205.6032353 141.40569989 -186.46058832 138.08971163 -167.25 134 C-165.77383713 133.6860025 -165.77383713 133.6860025 -164.26785278 133.36566162 C-153.70155266 131.09865875 -143.2192102 128.69447852 -132.88214111 125.5234375 C-128.44234402 124.20782418 -124.60885742 123.91106554 -120 124 C-117.56486039 123.55947535 -117.56486039 123.55947535 -115.3203125 122.828125 C-114.48242188 122.57796631 -113.64453125 122.32780762 -112.78125 122.07006836 C-111.9046875 121.7994458 -111.028125 121.52882324 -110.125 121.25 C-103.45129388 119.25501519 -96.80330466 117.4309657 -90 115.9375 C-74.88538276 112.50299659 -61.97979591 105.52553672 -48.54296875 98.0859375 C-47.55941406 97.54195312 -46.57585937 96.99796875 -45.5625 96.4375 C-44.71816406 95.96183594 -43.87382813 95.48617187 -43.00390625 94.99609375 C-41 94 -41 94 -39 94 C-38.67 93.01 -38.34 92.02 -38 91 C-35.89146874 89.76647883 -33.81835571 88.68610314 -31.625 87.625 C-13.88756029 78.57325247 9.34586363 64.96240911 16 45 C16.64247598 37.20602908 16.78814843 31.34106143 12 25 C11.2575 23.989375 10.515 22.97875 9.75 21.9375 C7.68207797 19.48184259 5.43368548 17.93189556 2.75 16.1875 C0.35550111 14.4752074 -0.80173873 13.55147431 -1.8046875 10.76171875 C-2.38156751 6.46325919 -2.18799547 3.80745668 0 0 Z " fill="#DACCB4" transform="translate(723,485)"/>
<path d="M0 0 C2.61458901 1.9060283 2.99728688 2.98514075 3.58984375 6.23046875 C3.70457031 7.53628906 3.81929688 8.84210938 3.9375 10.1875 C5.42856449 27.85772858 5.42856449 27.85772858 13.6875 42.4375 C19.01149224 43.73252514 22.53397955 42.83414595 27.19921875 40.1796875 C29.45585481 38.77271081 31.64869913 37.30596669 33.8515625 35.8125 C37.09146899 33.94734291 39.35386686 33.54788969 43 33 C45.79357711 31.63505746 45.79357711 31.63505746 48.375 29.9375 C49.24898438 29.38964844 50.12296875 28.84179688 51.0234375 28.27734375 C51.67570312 27.85582031 52.32796875 27.43429687 53 27 C53.495 27.99 53.495 27.99 54 29 C52.70703125 31.6796875 52.70703125 31.6796875 50.8125 34.875 C50.20019531 35.92429687 49.58789062 36.97359375 48.95703125 38.0546875 C47 41 47 41 44.9609375 43.0078125 C42.55945823 45.44756236 41.3067255 47.92704267 39.8125 51 C39.30332031 52.03125 38.79414063 53.0625 38.26953125 54.125 C35.47697094 60.44907503 34.87211261 66.79442533 37.1875 73.375 C39.18943527 76.27435452 40.81932729 77.53199721 44 79 C44.66 79 45.32 79 46 79 C45.071875 78.5875 44.14375 78.175 43.1875 77.75 C38.62162162 75.24324324 38.62162162 75.24324324 37 72 C35.74610354 66.52465212 35.7145867 62.24300698 38 57 C39.00476761 60.01430284 39.01734775 61.75283928 38.875 64.875 C38.84422617 69.09716942 39.05398414 71.74922388 42 75 C46.00166093 77.04901382 49.16087324 77.1798688 53.61328125 76.9765625 C54.86044922 76.925 56.10761719 76.8734375 57.39257812 76.8203125 C58.68615234 76.75585938 59.97972656 76.69140625 61.3125 76.625 C62.62541016 76.56828125 63.93832031 76.5115625 65.29101562 76.453125 C68.52791303 76.31187857 71.76400866 76.16048335 75 76 C75 76.99 75 77.98 75 79 C73.0848583 80.83109159 71.18765406 82.4758497 69.125 84.125 C67.92872214 85.10950524 66.7334205 86.0951978 65.5390625 87.08203125 C64.94125977 87.57268066 64.34345703 88.06333008 63.72753906 88.56884766 C59.69355844 91.91073494 55.81159412 95.40803305 52 99 C51.43023437 99.51949219 50.86046875 100.03898437 50.2734375 100.57421875 C47.72224004 103.17529996 46.57611101 105.57016483 46.1875 109.125 C46.73922137 118.47273628 54.84457968 126.23291486 61.30078125 132.30859375 C63.3234189 134.32193191 64.72550798 136.45101595 66 139 C59.17576662 137.76583013 52.60632156 136.1084005 46 134 C46.99 133.67 47.98 133.34 49 133 C47.71139947 132.53311575 46.41883668 132.07717129 45.125 131.625 C44.40570313 131.36976563 43.68640625 131.11453125 42.9453125 130.8515625 C38.68647123 129.62022643 34.35328225 128.82491045 30 128 C30.02094727 127.26587891 30.04189453 126.53175781 30.06347656 125.77539062 C30.64656515 102.20089759 29.01624105 81.83631443 13.10546875 63.125 C5.89245119 55.84507133 -1.92642334 52.81211855 -12.11767578 52.5690918 C-27.78975897 52.52984618 -42.05426388 55.63539778 -56 63 C-58.97 59.535 -58.97 59.535 -62 56 C-61.67 55.34 -61.34 54.68 -61 54 C-55.06 54 -49.12 54 -43 54 C-41.06321243 48.6483868 -41.06321243 48.6483868 -41.13671875 43.63671875 C-41.21809082 42.83975586 -41.29946289 42.04279297 -41.38330078 41.22167969 C-41.48368652 40.38540039 -41.58407227 39.54912109 -41.6875 38.6875 C-41.78272949 37.81899414 -41.87795898 36.95048828 -41.97607422 36.05566406 C-42.94528165 27.63749273 -44.38431755 19.315379 -46 11 C-43.48916886 12.25541557 -43.12874554 13.50063488 -42 16 C-41.34 16 -40.68 16 -40 16 C-38.38126547 18.27254095 -36.97633728 20.64279653 -35.53515625 23.03125 C-35.02855469 23.6809375 -34.52195312 24.330625 -34 25 C-33.01 25 -32.02 25 -31 25 C-29.09765625 26.6796875 -29.09765625 26.6796875 -27.0625 28.875 C-23.54880733 32.69660349 -23.54880733 32.69660349 -19 35 C-16.08538771 34.74153166 -14.52432474 34.60268752 -12.56738281 32.35327148 C-9.35756845 26.10313558 -6.9563975 19.72836628 -4.75 13.0625 C-4.05824543 11.01139684 -3.36558377 8.9605993 -2.671875 6.91015625 C-2.3737793 6.01433838 -2.07568359 5.11852051 -1.76855469 4.19555664 C-1 2 -1 2 0 0 Z " fill="#DFC170" transform="translate(359,389)"/>
<path d="M0 0 C0.495 0.495 0.495 0.495 1 1 C0.53386073 8.22515872 0.53386073 8.22515872 -1.03466797 10.50170898 C-4.0183868 12.77637761 -7.3877428 13.25555984 -10.9921875 13.98046875 C-12.18556229 14.2321003 -12.18556229 14.2321003 -13.40304565 14.48881531 C-21.47616214 16.16063598 -29.58943674 17.5987168 -37.7265625 18.92016602 C-40.16098588 19.31838653 -42.59202337 19.73423541 -45.0234375 20.15039062 C-46.60138683 20.40992453 -48.17950617 20.6684273 -49.7578125 20.92578125 C-50.46938507 21.04963699 -51.18095764 21.17349274 -51.91409302 21.30110168 C-56.85439537 22.07821437 -61.06077127 21.80382712 -66 21 C-61.94232115 13.7541449 -56.66232035 10.93730788 -49 8 C-43.20144739 6.437775 -37.24466065 5.62782262 -31.3125 4.75 C-28.99326055 4.38786847 -26.67495402 4.0201457 -24.35665894 3.65202332 C-22.87865867 3.41804162 -21.40024989 3.18662383 -19.92141724 2.95796204 C-0.59361443 -0.05565135 -0.59361443 -0.05565135 0 0 Z " fill="#DCCEB3" transform="translate(498,470)"/>
<path d="M0 0 C2.52845528 1.26422764 2.76422764 2.52845528 4 5 C4.66 5.33 5.32 5.66 6 6 C5.95875 6.969375 5.9175 7.93875 5.875 8.9375 C5.86331562 11.89364918 6.22420457 13.85477991 7 16.8125 C8.16596885 21.61795735 8.22636411 26.3312721 8.25 31.25 C8.25902344 32.03093018 8.26804687 32.81186035 8.27734375 33.61645508 C8.23677314 41.48968839 8.23677314 41.48968839 6 45 C3.3203125 46.51171875 3.3203125 46.51171875 0.125 47.6875 C-3.37815989 49.00871632 -6.64167007 50.32083504 -10 52 C-12.97 48.535 -12.97 48.535 -16 45 C-15.67 44.34 -15.34 43.68 -15 43 C-9.06 43 -3.12 43 3 43 C4.93678757 37.6483868 4.93678757 37.6483868 4.86328125 32.63671875 C4.78190918 31.83975586 4.70053711 31.04279297 4.61669922 30.22167969 C4.51631348 29.38540039 4.41592773 28.54912109 4.3125 27.6875 C4.21727051 26.81899414 4.12204102 25.95048828 4.02392578 25.05566406 C3.05471835 16.63749273 1.61568245 8.315379 0 0 Z " fill="#D4A944" transform="translate(313,400)"/>
<path d="M0 0 C-0.43868408 0.4031543 -0.87736816 0.80630859 -1.3293457 1.22167969 C-3.32691005 3.06103419 -5.31973017 4.90545272 -7.3125 6.75 C-8.34793945 7.70132812 -8.34793945 7.70132812 -9.40429688 8.671875 C-10.07138672 9.290625 -10.73847656 9.909375 -11.42578125 10.546875 C-12.34484253 11.39523926 -12.34484253 11.39523926 -13.2824707 12.26074219 C-16.26934707 15.28540562 -18.44614956 17.71318255 -18.625 22.0625 C-18.48906265 27.5362439 -15.7313534 31.17610524 -12.62890625 35.51953125 C-11.1398147 37.78709272 -10.43752919 39.3563377 -10 42 C-11.9375 41.25 -11.9375 41.25 -14 40 C-14.75 37.875 -14.75 37.875 -15 36 C-15.66 36 -16.32 36 -17 36 C-21.95249458 30.81167234 -22.54222384 26.93904442 -22.46875 19.8671875 C-21.93342971 16.59281173 -21.03135479 14.61584839 -19 12 C-18.01 12 -17.02 12 -16 12 C-16 11.01 -16 10.02 -16 9 C-5.94254208 -1.98084736 -5.94254208 -1.98084736 0 0 Z " fill="#DBB862" transform="translate(424,476)"/>
<path d="M0 0 C0.66 0.33 1.32 0.66 2 1 C1.14767706 7.24546985 -0.57284821 12.97105878 -2.875 18.8125 C-3.24165771 19.76298218 -3.24165771 19.76298218 -3.61572266 20.73266602 C-5.22744451 24.69913549 -7.05582137 27.88398215 -10 31 C-13.25 32.1875 -13.25 32.1875 -17 32 C-20.01311783 30.36741715 -22.46287018 28.28818389 -25 26 C-25.81791016 25.319375 -25.81791016 25.319375 -26.65234375 24.625 C-28.0625 23.375 -28.0625 23.375 -30 21 C-29.62109375 18.8515625 -29.62109375 18.8515625 -29 17 C-28.09507812 17.93972656 -28.09507812 17.93972656 -27.171875 18.8984375 C-26.37265625 19.71570313 -25.5734375 20.53296875 -24.75 21.375 C-23.96109375 22.18710937 -23.1721875 22.99921875 -22.359375 23.8359375 C-20.20648755 25.81060579 -18.76268071 27.11123063 -16 28 C-13.16783372 27.82538524 -11.61693299 27.64505529 -9.62890625 25.56640625 C-5.32050056 17.47039117 -2.73782937 8.72153893 0 0 Z " fill="#D6AE4F" transform="translate(356,396)"/>
<path d="M0 0 C0.28875 0.61875 0.5775 1.2375 0.875 1.875 C1.93720042 4.13325765 1.93720042 4.13325765 4 6 C4.55941326 7.60551606 5.05224024 9.23483653 5.5 10.875 C6.9736207 16.73094712 6.9736207 16.73094712 10.625 21.3125 C14.38941194 22.40219819 17.33960824 22.21630573 21 21 C23.92148083 19.32860907 26.74304035 17.60653427 29.51928711 15.70751953 C30.96845445 14.73531263 32.4815418 13.85997496 34 13 C34.99 13.33 35.98 13.66 37 14 C33.25314599 17.13887392 29.33522367 19.78414232 25.125 22.25 C24.53847656 22.61351562 23.95195312 22.97703125 23.34765625 23.3515625 C19.06364024 25.85606417 15.91669186 26.44101236 11 26 C7.77983035 24.95157267 6.44834786 23.8546631 4.875 20.85546875 C2.12290395 14.26865062 -0.45164873 7.22637967 0 0 Z " fill="#D7B051" transform="translate(362,410)"/>
<path d="M0 0 C0.66 0.66 1.32 1.32 2 2 C1.04482045 4.10560019 0.08574515 6.20943346 -0.875 8.3125 C-1.40867187 9.48425781 -1.94234375 10.65601563 -2.4921875 11.86328125 C-4 15 -4 15 -6 18 C-8.24966681 22.02571956 -8.22944577 25.38954868 -7.61328125 29.84375 C-6.64898512 33.23414149 -4.74727397 34.90683888 -2 37 C1.00015912 38.00005304 2.97423756 38.11575585 6.10546875 38.09765625 C7.57983398 38.09282227 7.57983398 38.09282227 9.08398438 38.08789062 C10.10814453 38.07951172 11.13230469 38.07113281 12.1875 38.0625 C13.22326172 38.05798828 14.25902344 38.05347656 15.32617188 38.04882812 C17.88417266 38.0370401 20.44205733 38.02058515 23 38 C18.42677316 40.61011097 14.27760629 40.36756478 9.125 40.375 C8.23941406 40.39949219 7.35382813 40.42398438 6.44140625 40.44921875 C0.78541155 40.47450636 -2.55343674 39.83830697 -7 36 C-10.35240125 31.19489155 -10.81674921 26.67135969 -10 21 C-7.85410917 13.50756762 -3.83966498 6.73221259 0 0 Z " fill="#CE9E2E" transform="translate(404,429)"/>
<path d="M0 0 C4.29 1.32 8.58 2.64 13 4 C8 8 8 8 5 9 C3.02 6.69 1.04 4.38 -1 2 C-0.67 1.34 -0.34 0.68 0 0 Z " fill="#E0C171" transform="translate(298,443)"/>
<path d="M0 0 C-1.65 1.98 -3.3 3.96 -5 6 C-4.34 6 -3.68 6 -3 6 C-3.33 6.66 -3.66 7.32 -4 8 C-10.42857143 9.28571429 -10.42857143 9.28571429 -13 8 C-5.38235294 -1.79411765 -5.38235294 -1.79411765 0 0 Z " fill="#E5D7C0" transform="translate(445,482)"/>
<path d="M0 0 C0.99 0.33 1.98 0.66 3 1 C-0.50807592 3.91479837 -4.08400485 6.41239065 -8 8.75 C-9.010625 9.36359375 -10.02125 9.9771875 -11.0625 10.609375 C-14.0415155 12.01965362 -15.7601175 12.30969465 -19 12 C-15.25 10 -15.25 10 -13 10 C-13 9.34 -13 8.68 -13 8 C-10.92171507 6.49687523 -8.87208449 5.14275176 -6.6875 3.8125 C-6.09259766 3.43158203 -5.49769531 3.05066406 -4.88476562 2.65820312 C-3.30619906 1.68637052 -1.65513469 0.83478151 0 0 Z " fill="#D4AA46" transform="translate(396,423)"/>
<path d="M0 0 C1.32 0 2.64 0 4 0 C4 3.3 4 6.6 4 10 C2.02 10.99 2.02 10.99 0 12 C-0.19477739 10.37585622 -0.38059458 8.75063577 -0.5625 7.125 C-0.66691406 6.22007812 -0.77132813 5.31515625 -0.87890625 4.3828125 C-1 2 -1 2 0 0 Z " fill="#D9CDB0" transform="translate(267,500)"/>
<path d="M0 0 C-0.99 0.33 -1.98 0.66 -3 1 C-3.33 3.31 -3.66 5.62 -4 8 C-6.31 7.67 -8.62 7.34 -11 7 C-11.33 7.66 -11.66 8.32 -12 9 C-12 4.74190625 -11.7667759 3.97172226 -9 1 C-5.8035914 -0.06546953 -3.34252724 -0.07427838 0 0 Z " fill="#DED2BD" transform="translate(630,603)"/>
<path d="M0 0 C4.29 0 8.58 0 13 0 C9 5 9 5 5.9375 5.625 C4.968125 5.41875 3.99875 5.2125 3 5 C2.01 3.35 1.02 1.7 0 0 Z " fill="#D0C2AC" transform="translate(465,638)"/>
<path d="M0 0 C6.27 0 12.54 0 19 0 C19 0.99 19 1.98 19 3 C11.85234068 4.23852969 6.68688919 3.85888741 0 1 C0 0.67 0 0.34 0 0 Z " fill="#DAB45B" transform="translate(299,443)"/>
<path d="M0 0 C1.48828125 1.11328125 1.48828125 1.11328125 3 3 C3.29296875 5.91796875 3.29296875 5.91796875 3.1875 9.1875 C3.14689453 10.81751953 3.14689453 10.81751953 3.10546875 12.48046875 C3.07066406 13.31191406 3.03585937 14.14335937 3 15 C2.34 15 1.68 15 1 15 C-1.43141495 10.1371701 -2.51837606 7.44084756 -1 2 C-0.67 1.34 -0.34 0.68 0 0 Z " fill="#DFBF6F" transform="translate(359,389)"/>
<path d="M0 0 C0.99 0.33 1.98 0.66 3 1 C3.28526928 4.37885612 3.46087248 7.63291991 3 11 C0.5 13.125 0.5 13.125 -2 14 C-2 9.23765388 -0.95781664 4.65225225 0 0 Z " fill="#CF9E2F" transform="translate(371,336)"/>
<path d="M0 0 C0.66 0.33 1.32 0.66 2 1 C0.84371094 2.12148438 0.84371094 2.12148438 -0.3359375 3.265625 C-1.34922356 4.26014651 -2.36222975 5.25495323 -3.375 6.25 C-3.88289063 6.74113281 -4.39078125 7.23226563 -4.9140625 7.73828125 C-9.60524381 12.36773649 -11.1173568 15.52728322 -12 22 C-12.33 22 -12.66 22 -13 22 C-13.83687083 15.30503335 -13.83687083 15.30503335 -11.65234375 11.8984375 C-9.8433839 9.83900629 -7.96730043 7.90839922 -6 6 C-5.40574219 5.39414062 -4.81148438 4.78828125 -4.19921875 4.1640625 C-2.81692069 2.75867116 -1.41099355 1.37657907 0 0 Z " fill="#CA9518" transform="translate(418,480)"/>
<path d="M0 0 C0.66 0.66 1.32 1.32 2 2 C1.69347955 4.9425963 1.32728846 7.34542308 0 10 C0.93578995 12.35981813 1.93347808 14.69631264 3 17 C0 16 0 16 -2 13 C-2.265625 10.37109375 -2.265625 10.37109375 -2.25 7.4375 C-2.25515625 6.46683594 -2.2603125 5.49617188 -2.265625 4.49609375 C-2 2 -2 2 0 0 Z " fill="#D8B254" transform="translate(404,492)"/>
<path d="M0 0 C1.74965358 -0.05429959 3.49979787 -0.09292823 5.25 -0.125 C6.22453125 -0.14820313 7.1990625 -0.17140625 8.203125 -0.1953125 C11.0196498 0.00137219 12.60949036 0.55431084 15 2 C15 2.99 15 3.98 15 5 C13.02 5 11.04 5 9 5 C9 3.68 9 2.36 9 1 C7.329375 1.309375 7.329375 1.309375 5.625 1.625 C4.42875 1.74875 3.2325 1.8725 2 2 C1.34 1.34 0.68 0.68 0 0 Z " fill="#C39229" transform="translate(260,427)"/>
<path d="M0 0 C2.52845528 1.26422764 2.76422764 2.52845528 4 5 C4.66 5.33 5.32 5.66 6 6 C6 9.3 6 12.6 6 16 C5.34 15.67 4.68 15.34 4 15 C4 14.01 4 13.02 4 12 C3.34 12 2.68 12 2 12 C1.34 8.04 0.68 4.08 0 0 Z " fill="#D5AC4C" transform="translate(313,400)"/>
<path d="M0 0 C-6.75 4 -6.75 4 -9 4 C-9.33 5.32 -9.66 6.64 -10 8 C-11.98 8 -13.96 8 -16 8 C-16 7.34 -16 6.68 -16 6 C-13.9021477 4.79994469 -11.7979751 3.61497017 -9.6875 2.4375 C-8.79514648 1.92413086 -8.79514648 1.92413086 -7.88476562 1.40039062 C-3.33984375 -1.11328125 -3.33984375 -1.11328125 0 0 Z " fill="#E1D9C9" transform="translate(674,586)"/>
<path d="M0 0 C1.65 0 3.3 0 5 0 C4.7525 0.556875 4.505 1.11375 4.25 1.6875 C3.71646324 4.24050936 3.71646324 4.24050936 5.9375 6.75 C6.618125 7.4925 7.29875 8.235 8 9 C4.41087588 9 3.89142971 8.33563446 1.3125 6 C0.68988281 5.443125 0.06726563 4.88625 -0.57421875 4.3125 C-1.04472656 3.879375 -1.51523437 3.44625 -2 3 C-1.01 2.67 -0.02 2.34 1 2 C0.67 1.34 0.34 0.68 0 0 Z " fill="#D3A63B" transform="translate(294,442)"/>
<path d="M0 0 C0.66 0.33 1.32 0.66 2 1 C1.67 1.99 1.34 2.98 1 4 C-0.32148827 4.37756808 -1.65835921 4.7018576 -3 5 C-3.86625 5.53625 -4.7325 6.0725 -5.625 6.625 C-6.40875 7.07875 -7.1925 7.5325 -8 8 C-8.66 7.67 -9.32 7.34 -10 7 C-9.67 6.01 -9.34 5.02 -9 4 C-6.6875 2.9375 -6.6875 2.9375 -4 2 C-3.278125 1.608125 -2.55625 1.21625 -1.8125 0.8125 C-1.214375 0.544375 -0.61625 0.27625 0 0 Z " fill="#E9DFC7" transform="translate(712,562)"/>
<path d="M0 0 C0.66 0.66 1.32 1.32 2 2 C-0.31 6.62 -2.62 11.24 -5 16 C-6 14 -6 14 -5.546875 12.01171875 C-4.06786711 7.69794574 -2.57892387 3.80698285 0 0 Z " fill="#D8B257" transform="translate(404,429)"/>
<path d="M0 0 C0.66 0.33 1.32 0.66 2 1 C-0.74423966 3.94751667 -3.36219655 6.22773678 -7 8 C-7.99 7.67 -8.98 7.34 -10 7 C-6.81404865 4.36021174 -3.69029454 1.89501612 0 0 Z " fill="#D0A235" transform="translate(407,416)"/>
<path d="M0 0 C1.77706209 2.66559313 2.87548273 5.0280615 4 8 C2.68 8.33 1.36 8.66 0 9 C-0.99 6.69 -1.98 4.38 -3 2 C-2.01 1.34 -1.02 0.68 0 0 Z " fill="#EBB926" transform="translate(397,564)"/>
<path d="M0 0 C1.55393116 1.97773056 2.88906287 3.73850533 3.875 6.0625 C5.39818934 8.68577053 7.35787257 9.60940661 10 11 C8.68 11.33 7.36 11.66 6 12 C2.28930302 8.00386479 0.40208382 5.62917348 0 0 Z " fill="#DDBE6E" transform="translate(366,422)"/>
<path d="M0 0 C5.21979128 -0.1799928 9.07262981 0.02905192 14 2 C11.49923002 3.62433191 10.41017471 4.07333427 7.421875 3.5390625 C6.54015625 3.23742187 5.6584375 2.93578125 4.75 2.625 C3.85796875 2.32851563 2.9659375 2.03203125 2.046875 1.7265625 C1.37140625 1.48679687 0.6959375 1.24703125 0 1 C0 0.67 0 0.34 0 0 Z " fill="#DAB65D" transform="translate(405,522)"/>
<path d="M0 0 C2.31 0.66 4.62 1.32 7 2 C7 2.99 7 3.98 7 5 C4.6875 5.25 4.6875 5.25 2 5 C0.1875 3 0.1875 3 -1 1 C-0.67 0.67 -0.34 0.34 0 0 Z " fill="#EDBE2D" transform="translate(258,427)"/>
<path d="M0 0 C1.32 0.66 2.64 1.32 4 2 C4 2.99 4 3.98 4 5 C3.34 5 2.68 5 2 5 C1.67 5.66 1.34 6.32 1 7 C0.34 6.34 -0.32 5.68 -1 5 C-0.625 2.375 -0.625 2.375 0 0 Z " fill="#F7EACF" transform="translate(723,485)"/>
<path d="M0 0 C0.99 0.33 1.98 0.66 3 1 C2.67 2.65 2.34 4.3 2 6 C1.34 6 0.68 6 0 6 C-0.33 6.99 -0.66 7.98 -1 9 C-2.60031344 5.79937313 -1.03173691 3.27728194 0 0 Z " fill="#F8C637" transform="translate(371,336)"/>
<path d="M0 0 C0.33 1.65 0.66 3.3 1 5 C-0.65 5 -2.3 5 -4 5 C-4.33 3.68 -4.66 2.36 -5 1 C-2 0 -2 0 0 0 Z " fill="#D3C5AD" transform="translate(449,633)"/>
<path d="M0 0 C-0.33 1.65 -0.66 3.3 -1 5 C-2.98 4.34 -4.96 3.68 -7 3 C-3.375 0 -3.375 0 0 0 Z " fill="#DED6C4" transform="translate(657,594)"/>
<path d="M0 0 C0.33 0 0.66 0 1 0 C1 2.64 1 5.28 1 8 C-0.32 7.67 -1.64 7.34 -3 7 C-1.125 2.25 -1.125 2.25 0 0 Z " fill="#DAB35C" transform="translate(381,533)"/>
<path d="M0 0 C0.99 0.33 1.98 0.66 3 1 C0.69 2.65 -1.62 4.3 -4 6 C-4 5.01 -4 4.02 -4 3 C-2.1875 1.25 -2.1875 1.25 0 0 Z " fill="#5E5B52" transform="translate(713,559)"/>
<path d="M0 0 C0.66 0 1.32 0 2 0 C3.625 2.5 3.625 2.5 5 5 C2.69 4.67 0.38 4.34 -2 4 C-1.34 2.68 -0.68 1.36 0 0 Z " fill="#DDB967" transform="translate(420,523)"/>
<path d="M0 0 C0.6875 1.8125 0.6875 1.8125 1 4 C-0.4375 5.75 -0.4375 5.75 -2 7 C-2.33 5.35 -2.66 3.7 -3 2 C-2.01 2 -1.02 2 0 2 C0 1.34 0 0.68 0 0 Z " fill="#DBCEB1" transform="translate(271,512)"/>
<path d="M0 0 C0 0.33 0 0.66 0 1 C-7.38461538 3.21538462 -7.38461538 3.21538462 -10.5 2.125 C-10.995 1.75375 -11.49 1.3825 -12 1 C-8.0186217 -0.3271261 -4.14954773 -0.06915913 0 0 Z " fill="#E4DBC8" transform="translate(338,442)"/>
<path d="M0 0 C0.66 0.33 1.32 0.66 2 1 C1.67 2.98 1.34 4.96 1 7 C0.34 7 -0.32 7 -1 7 C-1.33 7.66 -1.66 8.32 -2 9 C-1.34 6.03 -0.68 3.06 0 0 Z " fill="#D9B45C" transform="translate(356,396)"/>
</svg>
